<svg xmlns="http://www.w3.org/2000/svg" xmlns:xlink="http://www.w3.org/1999/xlink" viewBox="0 0 59.29 20.53"><defs><style>.cls-1{mask:url(#mask);filter:url(#luminosity-noclip-5);}.cls-18,.cls-2,.cls-24,.cls-25,.cls-26,.cls-27,.cls-28,.cls-29,.cls-30,.cls-31,.cls-32,.cls-33,.cls-34,.cls-35,.cls-36,.cls-37,.cls-38,.cls-39,.cls-4,.cls-40,.cls-41,.cls-42,.cls-43,.cls-44,.cls-45,.cls-46,.cls-47,.cls-48,.cls-49,.cls-50,.cls-51,.cls-6,.cls-8{mix-blend-mode:multiply;}.cls-2{fill:url(#radial-gradient);}.cls-3{mask:url(#mask-2);filter:url(#luminosity-noclip-6);}.cls-23,.cls-4{fill:url(#radial-gradient-2);}.cls-5{mask:url(#mask-3);filter:url(#luminosity-noclip-7);}.cls-6{fill:url(#radial-gradient-3);}.cls-7{mask:url(#mask-4);filter:url(#luminosity-noclip-8);}.cls-59,.cls-8{fill:url(#radial-gradient-4);}.cls-9{fill:none;}.cls-10{fill:url(#linear-gradient);}.cls-11{fill:url(#radial-gradient-5);}.cls-12{fill:url(#linear-gradient-2);}.cls-13{fill:url(#radial-gradient-6);}.cls-14{isolation:isolate;}.cls-15{fill:url(#radial-gradient-7);}.cls-16{clip-path:url(#clip-path);}.cls-17{clip-path:url(#clip-path-2);}.cls-18{fill:#a06c20;opacity:0.4;}.cls-19{clip-path:url(#clip-path-3);}.cls-20{mask:url(#mask-5);}.cls-21,.cls-57{opacity:0.5;}.cls-21,.cls-23,.cls-57,.cls-59{mix-blend-mode:screen;}.cls-21{fill:url(#radial-gradient-9);}.cls-22{mask:url(#mask-6);}.cls-24{opacity:0.9;}.cls-25{opacity:0;}.cls-26{opacity:0.04;}.cls-27{opacity:0.08;}.cls-28{opacity:0.12;}.cls-29{opacity:0.15;}.cls-30{opacity:0.19;}.cls-31{opacity:0.23;}.cls-32{opacity:0.27;}.cls-33{opacity:0.31;}.cls-34{opacity:0.35;}.cls-35{opacity:0.38;}.cls-36{opacity:0.42;}.cls-37{opacity:0.46;}.cls-38{opacity:0.5;}.cls-39{opacity:0.54;}.cls-40{opacity:0.58;}.cls-41{opacity:0.62;}.cls-42{opacity:0.65;}.cls-43{opacity:0.69;}.cls-44{opacity:0.73;}.cls-45{opacity:0.77;}.cls-46{opacity:0.81;}.cls-47{opacity:0.85;}.cls-48{opacity:0.88;}.cls-49{opacity:0.92;}.cls-50{opacity:0.96;}.cls-52{fill:url(#radial-gradient-11);}.cls-53{clip-path:url(#clip-path-4);}.cls-54{clip-path:url(#clip-path-5);}.cls-55{clip-path:url(#clip-path-6);}.cls-56{mask:url(#mask-7);}.cls-57{fill:url(#radial-gradient-13);}.cls-58{mask:url(#mask-8);}.cls-60{filter:url(#luminosity-noclip-4);}.cls-61{filter:url(#luminosity-noclip-3);}.cls-62{filter:url(#luminosity-noclip-2);}.cls-63{filter:url(#luminosity-noclip);}</style><filter id="luminosity-noclip" x="43.16" y="-8202.68" width="12.06" height="32766" filterUnits="userSpaceOnUse" color-interpolation-filters="sRGB"><feFlood flood-color="#fff" result="bg"/><feBlend in="SourceGraphic" in2="bg"/></filter><mask id="mask" x="43.16" y="-8202.68" width="12.06" height="32766" maskUnits="userSpaceOnUse"><g class="cls-63"/></mask><radialGradient id="radial-gradient" cx="49.19" cy="14.1" r="6.03" gradientUnits="userSpaceOnUse"><stop offset="0" stop-color="#fff"/><stop offset="0.1" stop-color="#f9f9f9"/><stop offset="0.22" stop-color="#e9e9e9"/><stop offset="0.36" stop-color="#cfcfcf"/><stop offset="0.51" stop-color="#aaa"/><stop offset="0.67" stop-color="#7a7a7a"/><stop offset="0.84" stop-color="#414141"/><stop offset="1"/></radialGradient><filter id="luminosity-noclip-2" x="46.27" y="-8202.68" width="2.27" height="32766" filterUnits="userSpaceOnUse" color-interpolation-filters="sRGB"><feFlood flood-color="#fff" result="bg"/><feBlend in="SourceGraphic" in2="bg"/></filter><mask id="mask-2" x="46.27" y="-8202.68" width="2.27" height="32766" maskUnits="userSpaceOnUse"><g class="cls-62"/></mask><radialGradient id="radial-gradient-2" cx="46.94" cy="8.49" r="4.79" gradientUnits="userSpaceOnUse"><stop offset="0" stop-color="#fff"/><stop offset="0.09" stop-color="#f8f8f8"/><stop offset="0.22" stop-color="#e6e6e6"/><stop offset="0.37" stop-color="#c7c7c7"/><stop offset="0.53" stop-color="#9c9c9c"/><stop offset="0.71" stop-color="#656565"/><stop offset="0.9" stop-color="#242424"/><stop offset="1"/></radialGradient><filter id="luminosity-noclip-3" x="4.07" y="-8202.68" width="12.06" height="32766" filterUnits="userSpaceOnUse" color-interpolation-filters="sRGB"><feFlood flood-color="#fff" result="bg"/><feBlend in="SourceGraphic" in2="bg"/></filter><mask id="mask-3" x="4.07" y="-8202.68" width="12.06" height="32766" maskUnits="userSpaceOnUse"><g class="cls-61"/></mask><radialGradient id="radial-gradient-3" cx="582.04" cy="14.1" r="6.03" gradientTransform="matrix(-1, 0, 0, 1, 592.14, 0)" xlink:href="#radial-gradient"/><filter id="luminosity-noclip-4" x="7.73" y="-8202.68" width="2.27" height="32766" filterUnits="userSpaceOnUse" color-interpolation-filters="sRGB"><feFlood flood-color="#fff" result="bg"/><feBlend in="SourceGraphic" in2="bg"/></filter><mask id="mask-4" x="7.73" y="-8202.68" width="2.27" height="32766" maskUnits="userSpaceOnUse"><g class="cls-60"/></mask><radialGradient id="radial-gradient-4" cx="8.41" cy="7.9" r="5.44" xlink:href="#radial-gradient-2"/><linearGradient id="linear-gradient" x1="48.6" y1="18.3" x2="48.6" y2="4.07" gradientUnits="userSpaceOnUse"><stop offset="0" stop-color="#ffd551"/><stop offset="1" stop-color="#cf7900"/></linearGradient><radialGradient id="radial-gradient-5" cx="48.81" cy="7.97" r="4.84" gradientUnits="userSpaceOnUse"><stop offset="0" stop-color="#0a0a0a"/><stop offset="1"/></radialGradient><linearGradient id="linear-gradient-2" x1="10.7" y1="18.3" x2="10.7" y2="4.07" xlink:href="#linear-gradient"/><radialGradient id="radial-gradient-6" cx="10.48" cy="7.97" r="4.84" xlink:href="#radial-gradient-5"/><radialGradient id="radial-gradient-7" cx="48.9" cy="1.99" r="19.9" xlink:href="#radial-gradient-5"/><clipPath id="clip-path"><path class="cls-9" d="M40.3,16.62A10.68,10.68,0,0,1,47.64,4.86a14.79,14.79,0,0,1,7.42-1,4,4,0,0,1,2.42,1.35c.86,1.3.64,4.16,0,6C54.24,21.63,41.46,17.94,40.3,16.62Z"/></clipPath><clipPath id="clip-path-2"><ellipse class="cls-10" cx="48.6" cy="9.49" rx="8.85" ry="8.61"/></clipPath><clipPath id="clip-path-3"><path class="cls-11" d="M48.51,1.88h-.05c-1.7.09-2.92,2.9-2.74,6.27.46,4.54,3.09,5.74,3.48,5.9h0S52,12.38,51.92,7.81C51.74,4.44,50.21,1.79,48.51,1.88Z"/></clipPath><filter id="luminosity-noclip-5" x="43.16" y="8.07" width="12.06" height="12.06" filterUnits="userSpaceOnUse" color-interpolation-filters="sRGB"><feFlood flood-color="#fff" result="bg"/><feBlend in="SourceGraphic" in2="bg"/></filter><mask id="mask-5" x="43.16" y="8.07" width="12.06" height="12.06" maskUnits="userSpaceOnUse"><g class="cls-1"><circle class="cls-2" cx="49.19" cy="14.1" r="6.03"/></g></mask><radialGradient id="radial-gradient-9" cx="49.19" cy="14.1" r="6.03" gradientUnits="userSpaceOnUse"><stop offset="0" stop-color="#ffd551"/><stop offset="0.1" stop-color="#f9d04f"/><stop offset="0.22" stop-color="#e9c34a"/><stop offset="0.36" stop-color="#cfad42"/><stop offset="0.51" stop-color="#aa8e36"/><stop offset="0.67" stop-color="#7a6627"/><stop offset="0.84" stop-color="#413615"/><stop offset="1"/></radialGradient><filter id="luminosity-noclip-6" x="46.27" y="7.58" width="2.27" height="4.65" filterUnits="userSpaceOnUse" color-interpolation-filters="sRGB"><feFlood flood-color="#fff" result="bg"/><feBlend in="SourceGraphic" in2="bg"/></filter><mask id="mask-6" x="46.27" y="7.58" width="2.27" height="4.65" maskUnits="userSpaceOnUse"><g class="cls-3"><path class="cls-4" d="M47.81,7.58a13.66,13.66,0,0,0-1.54.63,6.46,6.46,0,0,0,.12,1.49c.29,1.5,1,2.62,1.53,2.52s.78-1.41.49-2.9A6,6,0,0,0,47.81,7.58Z"/></g></mask><radialGradient id="radial-gradient-11" cx="581.75" cy="1.99" r="19.9" gradientTransform="matrix(-1, 0, 0, 1, 592.14, 0)" xlink:href="#radial-gradient-5"/><clipPath id="clip-path-4"><path class="cls-9" d="M19,16.62A10.68,10.68,0,0,0,11.66,4.86a14.78,14.78,0,0,0-7.42-1A4,4,0,0,0,1.82,5.21c-.86,1.3-.64,4.16,0,6a9.38,9.38,0,0,0,6.36,6.54C12.83,19.25,18.26,17.46,19,16.62Z"/></clipPath><clipPath id="clip-path-5"><ellipse class="cls-12" cx="10.7" cy="9.49" rx="8.85" ry="8.61"/></clipPath><clipPath id="clip-path-6"><path class="cls-13" d="M10.79,1.88h.05c1.7.09,2.92,2.9,2.74,6.27-.46,4.54-3.09,5.74-3.48,5.9h0S7.32,12.38,7.37,7.81C7.56,4.44,9.09,1.79,10.79,1.88Z"/></clipPath><filter id="luminosity-noclip-7" x="4.07" y="8.07" width="12.06" height="12.06" filterUnits="userSpaceOnUse" color-interpolation-filters="sRGB"><feFlood flood-color="#fff" result="bg"/><feBlend in="SourceGraphic" in2="bg"/></filter><mask id="mask-7" x="4.07" y="8.07" width="12.06" height="12.06" maskUnits="userSpaceOnUse"><g class="cls-5"><circle class="cls-6" cx="10.1" cy="14.1" r="6.03"/></g></mask><radialGradient id="radial-gradient-13" cx="582.04" cy="14.1" r="6.03" gradientTransform="matrix(-1, 0, 0, 1, 592.14, 0)" xlink:href="#radial-gradient-9"/><filter id="luminosity-noclip-8" x="7.73" y="6.84" width="2.27" height="5.38" filterUnits="userSpaceOnUse" color-interpolation-filters="sRGB"><feFlood flood-color="#fff" result="bg"/><feBlend in="SourceGraphic" in2="bg"/></filter><mask id="mask-8" x="7.73" y="6.84" width="2.27" height="5.38" maskUnits="userSpaceOnUse"><g class="cls-7"><path class="cls-8" d="M8.74,6.91l-.47-.07c-.49.22-.68,1.45-.41,2.86s1,2.62,1.53,2.52.78-1.41.49-2.9A4.07,4.07,0,0,0,8.74,6.91Z"/></g></mask></defs><title>Asset 2</title><g class="cls-14"><g id="Layer_2" data-name="Layer 2"><g id="Layer_1-2" data-name="Layer 1"><path class="cls-15" d="M40.3,16.62A10.68,10.68,0,0,1,47.64,4.86a14.79,14.79,0,0,1,7.42-1,4,4,0,0,1,2.42,1.35c.86,1.3.64,4.16,0,6a9.38,9.38,0,0,1-6.09,6.46C46.67,19.32,41.05,17.47,40.3,16.62Z"/><g class="cls-16"><ellipse class="cls-10" cx="48.6" cy="9.49" rx="8.85" ry="8.61"/><g class="cls-17"><path class="cls-18" d="M40,18.22a4.52,4.52,0,0,1-.14,2.31,4.44,4.44,0,0,1-2.21-3.75,13.07,13.07,0,0,1,.74-4.47A10.78,10.78,0,0,1,39.28,10a10.81,10.81,0,0,1,1.84-2.22,23.69,23.69,0,0,1,5.31-4.11,13.31,13.31,0,0,1,4-1.75,12.9,12.9,0,0,1,5.7.62,6,6,0,0,1,2.07.85c.6.45,1.33,1.66,1,4.31-1.44-1.07-16-3.76-19.38,8.6A5.8,5.8,0,0,0,40,18.22Z"/></g><path class="cls-11" d="M48.51,1.88h-.05c-1.7.09-2.92,2.9-2.74,6.27.46,4.54,3.09,5.74,3.48,5.9h0S52,12.38,51.92,7.81C51.74,4.44,50.21,1.79,48.51,1.88Z"/><g class="cls-19"><g class="cls-20"><circle class="cls-21" cx="49.19" cy="14.1" r="6.03"/></g></g><g class="cls-22"><path class="cls-23" d="M47.81,7.58a13.66,13.66,0,0,0-1.54.63,6.46,6.46,0,0,0,.12,1.49c.29,1.5,1,2.62,1.53,2.52s.78-1.41.49-2.9A6,6,0,0,0,47.81,7.58Z"/></g><g class="cls-24"><path class="cls-25" d="M40,18.22a4.52,4.52,0,0,1-.14,2.31,4.44,4.44,0,0,1-2.21-3.75,13.07,13.07,0,0,1,.74-4.47A10.78,10.78,0,0,1,39.28,10a10.81,10.81,0,0,1,1.84-2.22,23.69,23.69,0,0,1,5.31-4.11,13.31,13.31,0,0,1,4-1.75,12.9,12.9,0,0,1,5.7.62,6,6,0,0,1,2.07.85c.6.45,1.33,1.66,1,4.31-1.44-1.07-16-3.76-19.38,8.6A5.8,5.8,0,0,0,40,18.22Z"/><path class="cls-26" d="M46.44,3.6a13.3,13.3,0,0,1,4-1.75,12.88,12.88,0,0,1,5.7.62,6,6,0,0,1,2.07.85c.6.45,1.33,1.66,1,4.31-1.42-1.05-15.53-3.68-19.19,8q-.09.28-.17.58a3.76,3.76,0,0,0,.09,1.39c0,.21.07.39.09.52a4.37,4.37,0,0,1-.19,2.16,4.45,4.45,0,0,1-2.11-3.73,7.72,7.72,0,0,1,0-1.33,18.37,18.37,0,0,1,.71-3.1,10.66,10.66,0,0,1,.88-2.29A6.84,6.84,0,0,1,40,8.92c.36-.44.77-.85,1.17-1.25A23.62,23.62,0,0,1,46.44,3.6Z"/><path class="cls-27" d="M46.44,3.53a13.28,13.28,0,0,1,4-1.75,12.86,12.86,0,0,1,5.69.62,6,6,0,0,1,2.07.85c.6.45,1.33,1.66,1,4.31C57.76,6.5,43.65,3.87,40,15.62c-.06.19-.11.38-.17.58a3.72,3.72,0,0,0,.08,1.39c0,.21.06.39.08.52a4.22,4.22,0,0,1-.25,2,4.46,4.46,0,0,1-2-3.72,7.86,7.86,0,0,1,.05-1.32A18,18,0,0,1,38.5,12a10.54,10.54,0,0,1,.89-2.26,7,7,0,0,1,.66-.94c.36-.44.76-.84,1.16-1.24A23.55,23.55,0,0,1,46.44,3.53Z"/><path class="cls-28" d="M46.45,3.46a13.26,13.26,0,0,1,4-1.75,12.83,12.83,0,0,1,5.69.62,6,6,0,0,1,2.06.85c.6.45,1.33,1.66,1,4.31C57.76,6.43,43.64,3.8,40,15.57c-.06.18-.11.38-.17.58a3.68,3.68,0,0,0,.07,1.39A3.9,3.9,0,0,1,40,18a4.05,4.05,0,0,1-.3,1.84,4.48,4.48,0,0,1-1.91-3.71,8,8,0,0,1,.06-1.3,17.71,17.71,0,0,1,.72-3,10.42,10.42,0,0,1,.9-2.23,7.1,7.1,0,0,1,.66-.93c.36-.43.76-.83,1.15-1.23A23.49,23.49,0,0,1,46.45,3.46Z"/><path class="cls-29" d="M46.45,3.39a13.24,13.24,0,0,1,4-1.75,12.81,12.81,0,0,1,5.68.62,6,6,0,0,1,2.06.85c.6.45,1.33,1.66,1,4.31C57.75,6.36,43.63,3.73,40,15.52c-.06.18-.11.38-.17.58a3.65,3.65,0,0,0,.06,1.39,2.68,2.68,0,0,1,0,.5,3.85,3.85,0,0,1-.35,1.69,4.51,4.51,0,0,1-1.8-3.7,8.19,8.19,0,0,1,.07-1.29,17.39,17.39,0,0,1,.73-3,10.31,10.31,0,0,1,.91-2.2,7.25,7.25,0,0,1,.66-.92c.36-.43.75-.83,1.15-1.22A23.42,23.42,0,0,1,46.45,3.39Z"/><path class="cls-30" d="M46.46,3.32a13.22,13.22,0,0,1,4-1.75,12.78,12.78,0,0,1,5.68.62A6,6,0,0,1,58.2,3c.6.45,1.33,1.66,1,4.31C57.74,6.3,43.62,3.66,40,15.48c-.06.18-.11.37-.17.57a3.62,3.62,0,0,0,0,1.39,2,2,0,0,1,0,.49,3.6,3.6,0,0,1-.4,1.53,4.55,4.55,0,0,1-1.7-3.69,8.38,8.38,0,0,1,.08-1.28,17.07,17.07,0,0,1,.74-3,10.19,10.19,0,0,1,.92-2.17,7.41,7.41,0,0,1,.66-.9c.36-.42.75-.82,1.14-1.21A23.36,23.36,0,0,1,46.46,3.32Z"/><path class="cls-31" d="M46.46,3.25a13.2,13.2,0,0,1,4-1.75,12.76,12.76,0,0,1,5.67.62A6,6,0,0,1,58.2,3c.6.45,1.32,1.66,1,4.31C57.74,6.23,43.61,3.58,40,15.43c-.05.18-.11.37-.16.57a3.6,3.6,0,0,0,0,1.39,1.53,1.53,0,0,1,0,.48,3.28,3.28,0,0,1-.45,1.38,4.6,4.6,0,0,1-1.6-3.68,8.6,8.6,0,0,1,.09-1.26,16.75,16.75,0,0,1,.74-2.94,10.08,10.08,0,0,1,.93-2.14,7.59,7.59,0,0,1,.66-.89c.36-.42.74-.81,1.13-1.2A23.3,23.3,0,0,1,46.46,3.25Z"/><path class="cls-32" d="M46.47,3.18a13.18,13.18,0,0,1,4-1.75A12.74,12.74,0,0,1,56.13,2a6,6,0,0,1,2.06.85c.6.45,1.32,1.66,1,4.31C57.73,6.16,43.6,3.51,40,15.39c-.05.18-.11.37-.16.57a3.58,3.58,0,0,0,0,1.39,1.23,1.23,0,0,1,0,.47A2.86,2.86,0,0,1,39.38,19a4.66,4.66,0,0,1-1.5-3.67,8.83,8.83,0,0,1,.1-1.25,16.43,16.43,0,0,1,.75-2.91,10,10,0,0,1,.95-2.11,7.79,7.79,0,0,1,.66-.88c.35-.42.74-.81,1.12-1.19A23.24,23.24,0,0,1,46.47,3.18Z"/><path class="cls-33" d="M46.47,3.12a13.17,13.17,0,0,1,4-1.75A12.71,12.71,0,0,1,56.13,2a5.94,5.94,0,0,1,2.05.85c.6.45,1.32,1.66,1,4.31C57.72,6.09,43.59,3.44,40,15.34c-.05.17-.11.37-.16.57a3.56,3.56,0,0,0,0,1.39.81.81,0,0,1,0,.47,1.68,1.68,0,0,1-.56,1.06,4.73,4.73,0,0,1-1.39-3.66A9.09,9.09,0,0,1,38,13.93a16.12,16.12,0,0,1,.75-2.88,9.86,9.86,0,0,1,1-2.08,8,8,0,0,1,.66-.87c.35-.41.74-.8,1.12-1.18A23.19,23.19,0,0,1,46.47,3.12Z"/><path class="cls-34" d="M46.48,3a13.15,13.15,0,0,1,4-1.75,12.69,12.69,0,0,1,5.66.62,5.93,5.93,0,0,1,2.05.85c.6.45,1.32,1.66,1,4.31C57.72,6,43.58,3.37,40,15.29c-.05.17-.11.37-.16.57a3.55,3.55,0,0,0,0,1.39.69.69,0,0,1,0,.46,1.31,1.31,0,0,1-.61.91A4.81,4.81,0,0,1,37.95,15a9.38,9.38,0,0,1,.12-1.23,15.81,15.81,0,0,1,.76-2.85,9.75,9.75,0,0,1,1-2.06A8.24,8.24,0,0,1,40.44,8c.35-.41.73-.79,1.11-1.16A23.13,23.13,0,0,1,46.48,3Z"/><path class="cls-35" d="M46.48,3a13.13,13.13,0,0,1,4-1.75,12.67,12.67,0,0,1,5.65.62,5.92,5.92,0,0,1,2.05.85c.6.45,1.32,1.66,1,4.31C57.71,5.95,43.57,3.3,40,15.25c-.05.17-.11.36-.16.57a3.55,3.55,0,0,0,0,1.39.59.59,0,0,1,0,.45,1,1,0,0,1-.66.75A4.91,4.91,0,0,1,38,14.77a9.71,9.71,0,0,1,.13-1.21,15.5,15.5,0,0,1,.76-2.82,9.64,9.64,0,0,1,1-2,8.51,8.51,0,0,1,.65-.85c.35-.41.73-.78,1.1-1.15A23.08,23.08,0,0,1,46.48,3Z"/><path class="cls-36" d="M46.49,2.91a13.11,13.11,0,0,1,4-1.75,12.64,12.64,0,0,1,5.65.62,5.91,5.91,0,0,1,2,.85c.6.45,1.32,1.66,1,4.31C57.7,5.88,43.56,3.22,40,15.2c-.05.17-.11.36-.16.57a3.54,3.54,0,0,0,0,1.39.51.51,0,0,1-.06.44.79.79,0,0,1-.71.59A5,5,0,0,1,38,14.56a10.08,10.08,0,0,1,.14-1.2,15.2,15.2,0,0,1,.77-2.79,9.54,9.54,0,0,1,1-2,8.8,8.8,0,0,1,.65-.84c.35-.4.72-.78,1.1-1.14A23,23,0,0,1,46.49,2.91Z"/><path class="cls-37" d="M46.49,2.84a13.09,13.09,0,0,1,4-1.75,12.62,12.62,0,0,1,5.64.62,5.9,5.9,0,0,1,2,.85c.6.45,1.32,1.66,1,4.31C57.7,5.81,43.55,3.15,40,15.15c0,.17-.1.36-.16.57a3.54,3.54,0,0,0,0,1.39.46.46,0,0,1-.07.43A.65.65,0,0,1,39,18a5.15,5.15,0,0,1-1-3.62,10.5,10.5,0,0,1,.15-1.19A14.89,14.89,0,0,1,39,10.42a9.43,9.43,0,0,1,1-2,9.13,9.13,0,0,1,.65-.83c.35-.4.72-.77,1.09-1.13A23,23,0,0,1,46.49,2.84Z"/><path class="cls-38" d="M46.5,2.77a13.07,13.07,0,0,1,4-1.75,12.6,12.6,0,0,1,5.63.62,5.89,5.89,0,0,1,2,.85c.6.45,1.32,1.66.95,4.31C57.69,5.74,43.54,3.08,40,15.11c0,.17-.1.36-.16.57a3.55,3.55,0,0,0,0,1.39c0,.22,0,.36-.09.42a.58.58,0,0,1-.82.28,5.3,5.3,0,0,1-.88-3.6A11,11,0,0,1,38.22,13,14.59,14.59,0,0,1,39,10.26a9.33,9.33,0,0,1,1-1.94,9.51,9.51,0,0,1,.65-.81c.35-.39.72-.76,1.08-1.12A23,23,0,0,1,46.5,2.77Z"/><path class="cls-39" d="M46.5,2.7a13.05,13.05,0,0,1,4-1.75,12.57,12.57,0,0,1,5.63.62,5.88,5.88,0,0,1,2,.85c.59.45,1.31,1.66.95,4.31-1.41-1.06-15.56-3.72-19,8.33,0,.16-.1.36-.16.56a3.55,3.55,0,0,0,0,1.39c0,.22,0,.36-.1.42a.56.56,0,0,1-.87.13A5.48,5.48,0,0,1,38.1,14a11.53,11.53,0,0,1,.16-1.16A14.3,14.3,0,0,1,39,10.1a9.22,9.22,0,0,1,1-1.91,9.93,9.93,0,0,1,.65-.8c.35-.39.71-.75,1.07-1.11A22.91,22.91,0,0,1,46.5,2.7Z"/><path class="cls-40" d="M46.51,2.63a13,13,0,0,1,4-1.75,12.55,12.55,0,0,1,5.62.62,5.87,5.87,0,0,1,2,.85c.59.45,1.31,1.66.95,4.31C57.68,5.6,43.53,2.93,40.06,15c0,.16-.1.36-.16.56A3.57,3.57,0,0,0,39.85,17c0,.22,0,.35-.12.41a.57.57,0,0,1-.92,0,5.68,5.68,0,0,1-.68-3.58c0-.38.1-.77.17-1.15a14,14,0,0,1,.79-2.66,9.12,9.12,0,0,1,1-1.88c.2-.28.42-.54.65-.79s.71-.75,1.07-1.1A22.87,22.87,0,0,1,46.51,2.63Z"/><path class="cls-41" d="M46.51,2.56a13,13,0,0,1,4-1.75,12.53,12.53,0,0,1,5.62.62,5.86,5.86,0,0,1,2,.85c.59.45,1.31,1.66.95,4.31-1.41-1.06-15.56-3.73-19,8.37,0,.16-.1.35-.15.56a3.58,3.58,0,0,0-.07,1.38c0,.22,0,.35-.13.4a.62.62,0,0,1-1-.19,5.91,5.91,0,0,1-.58-3.57c0-.38.11-.76.18-1.14a13.71,13.71,0,0,1,.79-2.63,9,9,0,0,1,1-1.85c.2-.27.42-.53.65-.78s.7-.74,1.06-1.09A22.84,22.84,0,0,1,46.51,2.56Z"/><path class="cls-42" d="M46.52,2.5a13,13,0,0,1,4-1.75,12.5,12.5,0,0,1,5.61.62,5.86,5.86,0,0,1,2,.85c.59.45,1.31,1.66.95,4.31-1.41-1.06-15.57-3.73-19,8.4,0,.16-.1.35-.15.56a3.6,3.6,0,0,0-.08,1.38c0,.22,0,.35-.15.39a.68.68,0,0,1-1-.34,6.17,6.17,0,0,1-.47-3.56c0-.38.11-.75.19-1.12a13.42,13.42,0,0,1,.8-2.6,8.93,8.93,0,0,1,1.06-1.82c.2-.27.42-.52.64-.77s.7-.73,1.05-1.08A22.81,22.81,0,0,1,46.52,2.5Z"/><path class="cls-43" d="M46.52,2.43a13,13,0,0,1,4-1.75,12.48,12.48,0,0,1,5.61.62,5.85,5.85,0,0,1,2,.85c.59.45,1.31,1.66.94,4.31-1.41-1.06-15.57-3.74-19,8.42,0,.16-.1.35-.15.56a3.63,3.63,0,0,0-.09,1.38c0,.22,0,.35-.16.38a.77.77,0,0,1-1.07-.5,6.46,6.46,0,0,1-.37-3.55c.05-.37.12-.74.2-1.11a13.14,13.14,0,0,1,.8-2.57A8.83,8.83,0,0,1,40.3,7.68c.2-.26.42-.51.64-.76s.69-.73,1-1.07A22.78,22.78,0,0,1,46.52,2.43Z"/><path class="cls-44" d="M46.53,2.36a13,13,0,0,1,4-1.75,12.45,12.45,0,0,1,5.6.62,5.84,5.84,0,0,1,2,.85c.59.45,1.31,1.66.94,4.31-1.41-1.06-15.57-3.74-19,8.44,0,.15-.1.35-.15.56a3.66,3.66,0,0,0-.1,1.38.29.29,0,0,1-.18.37.91.91,0,0,1-1.13-.65,6.8,6.8,0,0,1-.27-3.54c.06-.37.13-.73.21-1.1a12.86,12.86,0,0,1,.81-2.54,8.74,8.74,0,0,1,1.08-1.76c.2-.26.42-.5.64-.75s.69-.72,1-1.05A22.76,22.76,0,0,1,46.53,2.36Z"/><path class="cls-45" d="M46.53,2.29A12.94,12.94,0,0,1,50.48.54a12.43,12.43,0,0,1,5.6.62,5.83,5.83,0,0,1,2,.85c.59.45,1.31,1.66.94,4.31-1.41-1.06-15.57-3.74-19,8.46,0,.15-.1.35-.15.56a3.69,3.69,0,0,0-.11,1.38.27.27,0,0,1-.19.37,1,1,0,0,1-1.18-.81,7.19,7.19,0,0,1-.17-3.53c.06-.36.14-.72.22-1.08a12.58,12.58,0,0,1,.81-2.51,8.65,8.65,0,0,1,1.09-1.73c.2-.25.42-.5.64-.74s.69-.71,1-1A22.75,22.75,0,0,1,46.53,2.29Z"/><path class="cls-46" d="M46.54,2.22A12.93,12.93,0,0,1,50.48.47a12.41,12.41,0,0,1,5.59.62,5.82,5.82,0,0,1,2,.85c.59.45,1.31,1.66.94,4.31-1.41-1.07-15.58-3.75-19,8.49,0,.15-.1.34-.15.56a3.73,3.73,0,0,0-.12,1.38c0,.22-.05.32-.21.36a1.15,1.15,0,0,1-1.23-1,7.63,7.63,0,0,1-.06-3.52c.07-.36.14-.72.23-1.07A12.3,12.3,0,0,1,39.36,9a8.55,8.55,0,0,1,1.1-1.7c.2-.25.42-.49.64-.72s.68-.7,1-1A22.73,22.73,0,0,1,46.54,2.22Z"/><path class="cls-47" d="M46.54,2.15A12.91,12.91,0,0,1,50.48.4,12.38,12.38,0,0,1,56.07,1a5.81,5.81,0,0,1,2,.85c.59.45,1.3,1.66.94,4.31-1.41-1.07-15.58-3.75-18.95,8.51,0,.15-.1.34-.15.55a3.77,3.77,0,0,0-.13,1.38c0,.22-.06.32-.22.35a1.29,1.29,0,0,1-1.28-1.12,8.12,8.12,0,0,1,0-3.51c.07-.35.15-.71.24-1.06a12,12,0,0,1,.82-2.44,8.47,8.47,0,0,1,1.12-1.67c.2-.24.42-.48.64-.71s.68-.7,1-1A22.72,22.72,0,0,1,46.54,2.15Z"/><path class="cls-48" d="M46.55,2.08A12.89,12.89,0,0,1,50.49.33a12.36,12.36,0,0,1,5.58.62,5.8,5.8,0,0,1,2,.85c.59.45,1.3,1.66.94,4.31C57.62,5,43.45,2.36,40.1,14.64c0,.15-.09.34-.15.55a3.82,3.82,0,0,0-.14,1.38c0,.22-.06.32-.24.34a1.44,1.44,0,0,1-1.33-1.28,8.69,8.69,0,0,1,.14-3.5c.07-.35.16-.7.25-1a11.76,11.76,0,0,1,.83-2.41A8.38,8.38,0,0,1,40.58,7c.21-.24.42-.47.64-.7s.67-.69,1-1A22.72,22.72,0,0,1,46.55,2.08Z"/><path class="cls-49" d="M46.55,2A12.87,12.87,0,0,1,50.49.26a12.34,12.34,0,0,1,5.58.62,5.79,5.79,0,0,1,2,.85c.59.45,1.3,1.66.94,4.31C57.62,5,43.44,2.29,40.1,14.59c0,.15-.09.34-.15.55a3.87,3.87,0,0,0-.15,1.38.25.25,0,0,1-.26.33,1.59,1.59,0,0,1-1.39-1.44,9.33,9.33,0,0,1,.24-3.49c.08-.35.17-.69.26-1a11.5,11.5,0,0,1,.84-2.38,8.29,8.29,0,0,1,1.14-1.61c.21-.24.42-.46.64-.69s.67-.68,1-1A22.72,22.72,0,0,1,46.55,2Z"/><path class="cls-50" d="M46.56,1.95A12.85,12.85,0,0,1,50.49.2a12.31,12.31,0,0,1,5.57.62,5.78,5.78,0,0,1,2,.85c.59.45,1.3,1.66.94,4.31-1.41-1.07-15.59-3.76-18.91,8.57,0,.14-.09.34-.15.55a3.93,3.93,0,0,0-.16,1.38c0,.22-.08.32-.27.32a1.75,1.75,0,0,1-1.44-1.59,10.06,10.06,0,0,1,.35-3.48c.08-.34.17-.68.27-1a11.23,11.23,0,0,1,.84-2.35,8.21,8.21,0,0,1,1.15-1.58c.21-.23.42-.46.63-.68s.66-.68,1-1A22.73,22.73,0,0,1,46.56,1.95Z"/><path class="cls-51" d="M39.79,16.43c.15.77-1.67.08-1.77-1.43a13.39,13.39,0,0,1,.72-4.47,11,11,0,0,1,.85-2.32A10.75,10.75,0,0,1,41.38,6a23.23,23.23,0,0,1,5.18-4.11A12.83,12.83,0,0,1,50.49.13a12.29,12.29,0,0,1,5.56.62,5.78,5.78,0,0,1,2,.85c.59.45,1.3,1.66.94,4.31-1.41-1.07-15.59-3.76-18.9,8.6A6.07,6.07,0,0,0,39.79,16.43Z"/></g></g><path class="cls-52" d="M19,16.62A10.68,10.68,0,0,0,11.66,4.86a14.78,14.78,0,0,0-7.42-1A4,4,0,0,0,1.82,5.21c-.86,1.3-.64,4.16,0,6C5.05,21.63,17.83,17.94,19,16.62Z"/><g class="cls-53"><ellipse class="cls-12" cx="10.7" cy="9.49" rx="8.85" ry="8.61"/><g class="cls-54"><path class="cls-18" d="M19.27,18.22a4.52,4.52,0,0,0,.14,2.31,4.44,4.44,0,0,0,2.21-3.75,13.07,13.07,0,0,0-.74-4.47A10.73,10.73,0,0,0,20,10a10.77,10.77,0,0,0-1.84-2.22,23.69,23.69,0,0,0-5.31-4.11,13.32,13.32,0,0,0-4-1.75,12.91,12.91,0,0,0-5.71.62,6,6,0,0,0-2.07.85C.46,3.83-.27,5,.1,7.69c1.44-1.07,16-3.76,19.38,8.6A5.83,5.83,0,0,1,19.27,18.22Z"/></g><path class="cls-13" d="M10.79,1.88h.05c1.7.09,2.92,2.9,2.74,6.27-.46,4.54-3.09,5.74-3.48,5.9h0S7.32,12.38,7.37,7.81C7.56,4.44,9.09,1.79,10.79,1.88Z"/><g class="cls-55"><g class="cls-56"><circle class="cls-57" cx="10.1" cy="14.1" r="6.03"/></g></g><g class="cls-24"><path class="cls-25" d="M19.27,18.22a4.52,4.52,0,0,0,.14,2.31,4.44,4.44,0,0,0,2.21-3.75,13.07,13.07,0,0,0-.74-4.47A10.73,10.73,0,0,0,20,10a10.77,10.77,0,0,0-1.84-2.22,23.69,23.69,0,0,0-5.31-4.11,13.32,13.32,0,0,0-4-1.75,12.91,12.91,0,0,0-5.71.62,6,6,0,0,0-2.07.85C.46,3.83-.27,5,.1,7.69c1.44-1.07,16-3.76,19.38,8.6A5.83,5.83,0,0,1,19.27,18.22Z"/><path class="cls-26" d="M1.07,3.31C.47,3.76-.26,5,.11,7.63c1.42-1.05,15.53-3.68,19.19,8q.09.28.17.58a3.77,3.77,0,0,1-.09,1.39c0,.21-.07.39-.09.52a4.37,4.37,0,0,0,.19,2.16,4.45,4.45,0,0,0,2.11-3.73,7.72,7.72,0,0,0,0-1.33,18.37,18.37,0,0,0-.71-3.1A10.62,10.62,0,0,0,20,9.86a6.51,6.51,0,0,0-.52-.77,16.3,16.3,0,0,0-1.31-1.43A23.61,23.61,0,0,0,13.52,4l-.69-.41a13.24,13.24,0,0,0-4-1.74,12.88,12.88,0,0,0-5.7.62A6,6,0,0,0,1.07,3.31Z"/><path class="cls-27" d="M1.07,3.24c-.6.45-1.33,1.66-1,4.31C1.53,6.5,15.64,3.87,19.3,15.62c.06.19.11.38.17.58a3.73,3.73,0,0,1-.08,1.39c0,.21-.06.39-.08.52a4.22,4.22,0,0,0,.25,2,4.46,4.46,0,0,0,2-3.72,7.86,7.86,0,0,0-.05-1.32A18,18,0,0,0,20.79,12a10.51,10.51,0,0,0-.9-2.27A6.66,6.66,0,0,0,19.37,9a16.51,16.51,0,0,0-1.31-1.42,23.55,23.55,0,0,0-4.57-3.64l-.69-.41a13.15,13.15,0,0,0-4-1.72,12.86,12.86,0,0,0-5.7.62A6,6,0,0,0,1.07,3.24Z"/><path class="cls-28" d="M1.08,3.17c-.6.45-1.33,1.66-1,4.31C1.54,6.43,15.65,3.8,19.29,15.57c.06.18.11.38.17.58a3.69,3.69,0,0,1-.07,1.39,3.91,3.91,0,0,0-.06.51,4.05,4.05,0,0,0,.3,1.84,4.49,4.49,0,0,0,1.91-3.71,8,8,0,0,0-.06-1.3,17.71,17.71,0,0,0-.72-3,10.41,10.41,0,0,0-.91-2.24,6.82,6.82,0,0,0-.53-.76A16.73,16.73,0,0,0,18,7.43a23.49,23.49,0,0,0-4.55-3.61l-.68-.4A13.07,13.07,0,0,0,8.83,1.71a12.84,12.84,0,0,0-5.69.62A6,6,0,0,0,1.08,3.17Z"/><path class="cls-29" d="M1.09,3.11c-.6.45-1.33,1.66-1,4.31,1.42-1.05,15.53-3.69,19.16,8.11.06.18.11.38.17.58a3.66,3.66,0,0,1-.06,1.39,2.69,2.69,0,0,0,0,.5,3.85,3.85,0,0,0,.35,1.69A4.52,4.52,0,0,0,21.5,16a8.19,8.19,0,0,0-.07-1.29,17.39,17.39,0,0,0-.73-3,10.3,10.3,0,0,0-.93-2.22,7,7,0,0,0-.53-.75A17,17,0,0,0,18,7.32a23.43,23.43,0,0,0-4.52-3.58l-.68-.4a13,13,0,0,0-3.92-1.7,12.81,12.81,0,0,0-5.68.62A6,6,0,0,0,1.09,3.11Z"/><path class="cls-30" d="M1.09,3c-.6.45-1.33,1.66-1,4.31C1.55,6.3,15.67,3.66,19.28,15.48c.06.18.11.37.17.57a3.63,3.63,0,0,1,0,1.39,2,2,0,0,0,0,.49,3.6,3.6,0,0,0,.4,1.53,4.55,4.55,0,0,0,1.7-3.69,8.38,8.38,0,0,0-.08-1.28,17.07,17.07,0,0,0-.74-3,10.2,10.2,0,0,0-.94-2.19,7.19,7.19,0,0,0-.53-.74A17.21,17.21,0,0,0,17.9,7.2a23.38,23.38,0,0,0-4.5-3.55l-.67-.4A12.9,12.9,0,0,0,8.83,1.57a12.79,12.79,0,0,0-5.68.62A6,6,0,0,0,1.09,3Z"/><path class="cls-31" d="M1.1,3c-.6.45-1.33,1.66-1,4.31,1.41-1.06,15.54-3.7,19.14,8.15.05.18.11.37.16.57a3.61,3.61,0,0,1,0,1.39,1.53,1.53,0,0,0,0,.48,3.28,3.28,0,0,0,.45,1.38,4.6,4.6,0,0,0,1.6-3.68,8.6,8.6,0,0,0-.09-1.26,16.75,16.75,0,0,0-.74-2.94,10.1,10.1,0,0,0-1-2.17,7.4,7.4,0,0,0-.53-.73,17.47,17.47,0,0,0-1.29-1.38,23.33,23.33,0,0,0-4.47-3.52l-.67-.39A12.81,12.81,0,0,0,8.83,1.5a12.76,12.76,0,0,0-5.67.62A6,6,0,0,0,1.1,3Z"/><path class="cls-32" d="M1.11,2.9c-.6.45-1.32,1.66-1,4.31,1.41-1.06,15.54-3.7,19.12,8.17.05.18.11.37.16.57a3.59,3.59,0,0,1,0,1.39,1.23,1.23,0,0,0,0,.47A2.86,2.86,0,0,0,19.91,19a4.66,4.66,0,0,0,1.5-3.67,8.83,8.83,0,0,0-.1-1.25,16.43,16.43,0,0,0-.75-2.91,10,10,0,0,0-1-2.14,7.63,7.63,0,0,0-.53-.73A17.75,17.75,0,0,0,17.78,7a23.27,23.27,0,0,0-4.45-3.49l-.66-.39A12.72,12.72,0,0,0,8.83,1.43,12.74,12.74,0,0,0,3.16,2,5.94,5.94,0,0,0,1.11,2.9Z"/><path class="cls-33" d="M1.11,2.83c-.6.45-1.32,1.66-1,4.31,1.41-1.06,15.54-3.7,19.11,8.19.05.17.11.37.16.57a3.57,3.57,0,0,1,0,1.39.81.81,0,0,0,0,.47A1.68,1.68,0,0,0,20,18.83a4.73,4.73,0,0,0,1.39-3.66,9.09,9.09,0,0,0-.11-1.24,16.12,16.12,0,0,0-.75-2.88,9.9,9.9,0,0,0-1-2.11A7.88,7.88,0,0,0,19,8.22a18,18,0,0,0-1.28-1.36A23.22,23.22,0,0,0,13.3,3.4L12.64,3A12.64,12.64,0,0,0,8.83,1.37,12.72,12.72,0,0,0,3.17,2,5.94,5.94,0,0,0,1.11,2.83Z"/><path class="cls-34" d="M1.12,2.76c-.6.45-1.32,1.66-1,4.31C1.58,6,15.71,3.37,19.26,15.29c.05.17.11.37.16.57a3.56,3.56,0,0,1,0,1.39.69.69,0,0,0,0,.46,1.31,1.31,0,0,0,.61.91A4.81,4.81,0,0,0,21.35,15a9.38,9.38,0,0,0-.12-1.23,15.81,15.81,0,0,0-.76-2.85,9.81,9.81,0,0,0-1-2.09,8.15,8.15,0,0,0-.53-.71,18.34,18.34,0,0,0-1.27-1.35,23.18,23.18,0,0,0-4.4-3.43l-.65-.39A12.55,12.55,0,0,0,8.83,1.3a12.69,12.69,0,0,0-5.66.62A5.93,5.93,0,0,0,1.12,2.76Z"/><path class="cls-35" d="M1.12,2.69C.53,3.14-.2,4.36.17,7,1.58,5.95,15.72,3.3,19.26,15.25c.05.17.11.36.16.57a3.56,3.56,0,0,1,0,1.39.59.59,0,0,0,0,.45,1,1,0,0,0,.66.75,4.91,4.91,0,0,0,1.19-3.64,9.71,9.71,0,0,0-.13-1.21,15.5,15.5,0,0,0-.76-2.82,9.71,9.71,0,0,0-1-2.06,8.46,8.46,0,0,0-.53-.7c-.4-.47-.83-.91-1.27-1.34a23.13,23.13,0,0,0-4.38-3.4l-.65-.38A12.47,12.47,0,0,0,8.83,1.23a12.67,12.67,0,0,0-5.65.62A5.92,5.92,0,0,0,1.12,2.69Z"/><path class="cls-36" d="M1.13,2.62c-.6.45-1.32,1.66-1,4.31C1.59,5.88,15.73,3.22,19.25,15.2c.05.17.11.36.16.57a3.55,3.55,0,0,1,0,1.39.51.51,0,0,0,.06.44.79.79,0,0,0,.71.59,5,5,0,0,0,1.09-3.63,10.08,10.08,0,0,0-.14-1.2,15,15,0,0,0-.77-2.79,9.53,9.53,0,0,0-1-2c-.16-.24-.34-.47-.53-.69-.4-.47-.83-.9-1.26-1.33a23.09,23.09,0,0,0-4.35-3.37l-.65-.38A12.38,12.38,0,0,0,8.82,1.16a12.65,12.65,0,0,0-5.65.62A5.91,5.91,0,0,0,1.13,2.62Z"/><path class="cls-37" d="M1.14,2.56C.54,3-.18,4.22.19,6.87,1.6,5.81,15.74,3.15,19.25,15.15c0,.17.11.36.16.57a3.55,3.55,0,0,1,0,1.39.46.46,0,0,0,.07.43.65.65,0,0,0,.76.44,5.15,5.15,0,0,0,1-3.62,10.5,10.5,0,0,0-.15-1.19,14.72,14.72,0,0,0-.77-2.76,9.44,9.44,0,0,0-1-2c-.17-.24-.35-.46-.53-.69-.4-.47-.83-.9-1.26-1.32a23,23,0,0,0-4.33-3.35l-.64-.38A12.29,12.29,0,0,0,8.82,1.09a12.62,12.62,0,0,0-5.64.62A5.9,5.9,0,0,0,1.14,2.56Z"/><path class="cls-38" d="M1.14,2.49C.55,2.93-.17,4.15.19,6.8,1.6,5.74,15.75,3.08,19.25,15.11c0,.17.1.36.16.57a3.55,3.55,0,0,1,0,1.39c0,.22,0,.36.09.42a.58.58,0,0,0,.82.28,5.31,5.31,0,0,0,.88-3.6A11,11,0,0,0,21.07,13a14.42,14.42,0,0,0-.78-2.72,9.34,9.34,0,0,0-1.06-2c-.17-.23-.35-.46-.53-.68-.4-.46-.83-.89-1.26-1.3A23,23,0,0,0,13.14,3l-.64-.38A12.21,12.21,0,0,0,8.82,1a12.6,12.6,0,0,0-5.64.62A5.89,5.89,0,0,0,1.14,2.49Z"/><path class="cls-39" d="M1.15,2.42C.55,2.87-.17,4.08.2,6.73c1.41-1.06,15.56-3.72,19,8.33,0,.16.1.36.16.56a3.56,3.56,0,0,1,0,1.39c0,.22,0,.36.1.42a.56.56,0,0,0,.87.13A5.48,5.48,0,0,0,21.2,14,11.53,11.53,0,0,0,21,12.8a14.13,14.13,0,0,0-.78-2.69,9.25,9.25,0,0,0-1.07-2c-.17-.23-.35-.45-.54-.67-.4-.46-.82-.88-1.25-1.29a23,23,0,0,0-4.28-3.29l-.63-.37A12.12,12.12,0,0,0,8.82,1a12.57,12.57,0,0,0-5.63.62A5.88,5.88,0,0,0,1.15,2.42Z"/><path class="cls-40" d="M1.15,2.35C.56,2.8-.16,4,.21,6.66,1.62,5.6,15.77,2.93,19.24,15c0,.16.1.36.16.56A3.57,3.57,0,0,1,19.45,17c0,.22,0,.35.12.41a.57.57,0,0,0,.92,0,5.68,5.68,0,0,0,.68-3.58c0-.38-.1-.77-.17-1.15a13.84,13.84,0,0,0-.79-2.66A9.17,9.17,0,0,0,19.12,8c-.17-.23-.35-.45-.54-.66-.4-.46-.82-.88-1.25-1.28a22.93,22.93,0,0,0-4.25-3.26l-.63-.37A12,12,0,0,0,8.82.88a12.55,12.55,0,0,0-5.62.62A5.87,5.87,0,0,0,1.15,2.35Z"/><path class="cls-41" d="M1.16,2.28C.57,2.73-.15,3.94.21,6.59c1.41-1.06,15.56-3.73,19,8.37,0,.16.1.35.15.56a3.59,3.59,0,0,1,.07,1.38c0,.22,0,.35.13.4a.62.62,0,0,0,1-.19,5.91,5.91,0,0,0,.58-3.57c0-.38-.11-.76-.18-1.14a13.55,13.55,0,0,0-.79-2.63,9.08,9.08,0,0,0-1.1-1.91c-.17-.22-.35-.44-.54-.65-.4-.45-.82-.87-1.24-1.27A22.9,22.9,0,0,0,13,2.72l-.62-.37A12,12,0,0,0,8.82.81a12.53,12.53,0,0,0-5.62.62A5.86,5.86,0,0,0,1.16,2.28Z"/><path class="cls-42" d="M1.17,2.21C.57,2.66-.14,3.88.22,6.52c1.41-1.06,15.57-3.73,19,8.4,0,.16.1.35.15.56a3.61,3.61,0,0,1,.08,1.38c0,.22,0,.35.15.39a.68.68,0,0,0,1-.34,6.17,6.17,0,0,0,.47-3.56c0-.38-.11-.75-.19-1.12a13.27,13.27,0,0,0-.8-2.6A9,9,0,0,0,19,7.75c-.17-.22-.35-.44-.54-.65-.4-.45-.82-.86-1.24-1.26A22.87,22.87,0,0,0,13,2.64l-.62-.36A11.87,11.87,0,0,0,8.82.75a12.5,12.5,0,0,0-5.61.62A5.85,5.85,0,0,0,1.17,2.21Z"/><path class="cls-43" d="M1.17,2.14C.58,2.59-.14,3.81.23,6.46c1.41-1.06,15.57-3.74,19,8.42,0,.16.1.35.15.56a3.63,3.63,0,0,1,.09,1.38c0,.22,0,.35.16.38a.77.77,0,0,0,1.07-.5,6.47,6.47,0,0,0,.37-3.55c-.05-.37-.12-.74-.2-1.11a13,13,0,0,0-.8-2.57,8.92,8.92,0,0,0-1.13-1.86c-.17-.22-.35-.43-.54-.64-.4-.44-.82-.86-1.23-1.25A22.84,22.84,0,0,0,13,2.55l-.62-.36A11.78,11.78,0,0,0,8.82.68a12.48,12.48,0,0,0-5.61.62A5.84,5.84,0,0,0,1.17,2.14Z"/><path class="cls-44" d="M1.18,2.07C.59,2.52-.13,3.74.24,6.39c1.41-1.06,15.57-3.74,19,8.44,0,.15.1.35.15.56a3.66,3.66,0,0,1,.1,1.38.29.29,0,0,0,.18.37.91.91,0,0,0,1.13-.65A6.8,6.8,0,0,0,21,12.95c-.06-.37-.13-.73-.21-1.1A12.72,12.72,0,0,0,20,9.31a8.84,8.84,0,0,0-1.15-1.83c-.17-.22-.35-.42-.54-.63-.4-.44-.81-.85-1.23-1.24A22.82,22.82,0,0,0,13,2.47l-.61-.36A11.69,11.69,0,0,0,8.81.61a12.46,12.46,0,0,0-5.6.62A5.83,5.83,0,0,0,1.18,2.07Z"/><path class="cls-45" d="M1.19,2C.59,2.45-.12,3.67.24,6.32c1.41-1.06,15.57-3.74,19,8.46,0,.15.1.35.15.56a3.69,3.69,0,0,1,.11,1.38.27.27,0,0,0,.19.37,1,1,0,0,0,1.18-.81A7.19,7.19,0,0,0,21,12.75c-.06-.36-.14-.72-.22-1.08A12.45,12.45,0,0,0,20,9.16a8.77,8.77,0,0,0-1.16-1.81c-.17-.21-.36-.42-.54-.62-.4-.44-.81-.84-1.22-1.23a22.8,22.8,0,0,0-4.13-3.11L12.31,2A11.61,11.61,0,0,0,8.81.54a12.43,12.43,0,0,0-5.6.62A5.82,5.82,0,0,0,1.19,2Z"/><path class="cls-46" d="M1.19,1.94C.6,2.38-.11,3.6.25,6.25c1.41-1.07,15.58-3.75,19,8.49,0,.15.1.34.15.56a3.73,3.73,0,0,1,.12,1.38c0,.22.05.32.21.36a1.15,1.15,0,0,0,1.23-1A7.63,7.63,0,0,0,21,12.54c-.07-.36-.14-.72-.23-1.07A12.3,12.3,0,0,0,19.93,9a8.77,8.77,0,0,0-1.18-1.78c-.17-.21-.36-.41-.54-.61-.4-.43-.81-.84-1.22-1.22A22.78,22.78,0,0,0,12.89,2.3l-.6-.35A11.52,11.52,0,0,0,8.81.47a12.41,12.41,0,0,0-5.59.62A5.81,5.81,0,0,0,1.19,1.94Z"/><path class="cls-47" d="M1.2,1.87C.61,2.32-.11,3.53.26,6.18,1.66,5.11,15.84,2.43,19.2,14.69c0,.15.1.34.15.55a3.77,3.77,0,0,1,.13,1.38c0,.22.06.32.22.35A1.29,1.29,0,0,0,21,15.85a8.13,8.13,0,0,0,0-3.51c-.07-.35-.15-.71-.24-1.06a12,12,0,0,0-.82-2.44A8.7,8.7,0,0,0,18.7,7.09c-.18-.21-.36-.41-.54-.6-.4-.43-.81-.83-1.21-1.21a22.76,22.76,0,0,0-4.09-3.06l-.6-.35A11.44,11.44,0,0,0,8.81.4,12.39,12.39,0,0,0,3.22,1,5.8,5.8,0,0,0,1.2,1.87Z"/><path class="cls-48" d="M1.2,1.8C.61,2.25-.1,3.46.26,6.11,1.67,5,15.85,2.36,19.2,14.64c0,.15.09.34.15.55a3.82,3.82,0,0,1,.14,1.38c0,.22.06.32.24.34a1.44,1.44,0,0,0,1.33-1.28,8.69,8.69,0,0,0-.14-3.5c-.07-.35-.16-.7-.25-1a11.76,11.76,0,0,0-.83-2.41A8.63,8.63,0,0,0,18.64,7l-.54-.6c-.4-.43-.8-.82-1.21-1.2a22.75,22.75,0,0,0-4.06-3l-.59-.35A11.35,11.35,0,0,0,8.81.33,12.36,12.36,0,0,0,3.23.95,5.79,5.79,0,0,0,1.2,1.8Z"/><path class="cls-49" d="M1.21,1.73C.62,2.18-.09,3.39.27,6,1.68,5,15.86,2.29,19.19,14.59c0,.15.09.34.15.55a3.87,3.87,0,0,1,.15,1.38.25.25,0,0,0,.26.33,1.59,1.59,0,0,0,1.39-1.44,9.33,9.33,0,0,0-.24-3.49c-.08-.35-.17-.69-.26-1a11.5,11.5,0,0,0-.84-2.38,8.56,8.56,0,0,0-1.22-1.7L18,6.23c-.4-.42-.8-.82-1.2-1.19a22.74,22.74,0,0,0-4-3l-.59-.34A11.27,11.27,0,0,0,8.81.26,12.34,12.34,0,0,0,3.23.88,5.79,5.79,0,0,0,1.21,1.73Z"/><path class="cls-50" d="M1.22,1.66C.63,2.11-.09,3.33.28,6c1.41-1.07,15.59-3.76,18.91,8.57,0,.14.09.34.15.55a3.93,3.93,0,0,1,.16,1.38c0,.22.08.32.27.32a1.73,1.73,0,0,0,1.44-1.59,10.06,10.06,0,0,0-.35-3.47c-.08-.34-.17-.68-.27-1a11.23,11.23,0,0,0-.84-2.35,8.49,8.49,0,0,0-1.23-1.68L18,6.11c-.4-.42-.8-.81-1.2-1.18a22.74,22.74,0,0,0-4-3l-.58-.34A11.18,11.18,0,0,0,8.81.2,12.31,12.31,0,0,0,3.24.81,5.78,5.78,0,0,0,1.22,1.66Z"/><path class="cls-51" d="M19.5,16.43c-.15.77,1.67.08,1.77-1.43a13.39,13.39,0,0,0-.72-4.47,11,11,0,0,0-.85-2.32A10.75,10.75,0,0,0,17.91,6a23.23,23.23,0,0,0-5.18-4.11A12.83,12.83,0,0,0,8.81.13,12.29,12.29,0,0,0,3.24.74a5.77,5.77,0,0,0-2,.85C.63,2-.08,3.26.28,5.91c1.41-1.07,15.59-3.76,18.9,8.6A6.07,6.07,0,0,1,19.5,16.43Z"/></g></g><g class="cls-58"><path class="cls-59" d="M8.74,6.91l-.47-.07c-.49.22-.68,1.45-.41,2.86s1,2.62,1.53,2.52.78-1.41.49-2.9A4.07,4.07,0,0,0,8.74,6.91Z"/></g></g></g></g></svg>