<?xml version="1.0" encoding="utf-8"?>
<!-- Generator: Adobe Illustrator 21.0.2, SVG Export Plug-In . SVG Version: 6.00 Build 0)  -->
<svg version="1.1" id="Layer_1" xmlns="http://www.w3.org/2000/svg" xmlns:xlink="http://www.w3.org/1999/xlink" x="0px" y="0px"
	 viewBox="0 0 262.7 293.6" style="enable-background:new 0 0 262.7 293.6;" xml:space="preserve">
<style type="text/css">
	.st0{fill:none;}
</style>
<title>girl</title>
<path class="st0" d="M53.4,65.4c0-0.5-0.1-1.1-0.1-1.7c-0.5-1.1-1.1-2.1-1.5-3.2c-0.1,0.3-0.1,0.7-0.2,1c-0.2,1.4-0.4,2.8-0.5,4.2
	C51.9,65.6,52.6,65.5,53.4,65.4z"/>
<path class="st0" d="M18.2,130.4c0.6-2.7,1.4-5.3,2.4-7.9l0.1-0.2c0-0.4,0.1-0.8,0.1-1.2C19.6,124.1,18.7,127.2,18.2,130.4z"/>
<path class="st0" d="M28.4,102.4l0.5-0.5c0-0.5,0-0.9-0.1-1.4l-0.3-0.4c0,0.1-0.1,0.2-0.1,0.3c-0.1,0.5-0.2,1-0.3,1.5L28.4,102.4z"
	/>
<path class="st0" d="M43.2,151.5L43.2,151.5l0.1,0.2l0.1,0.2l0.1,0.1L43.2,151.5z"/>
<path class="st0" d="M27.7,90.2c0.1,1.2,0.3,2.4,0.7,3.5c0.3-0.6,0.7-1.1,1-1.6c0.6-2.7,1.6-5.3,3-7.7C30.6,86.1,29,88,27.7,90.2z"
	/>
<path class="st0" d="M47.8,78l0.2-0.3c-0.5,0.3-1,0.6-1.5,0.9c-0.3,0.3-0.7,0.5-1,0.8l-0.1,0.1C46.2,78.9,47,78.4,47.8,78z"/>
<path class="st0" d="M32,82.3c1.4-1.1,2.9-2.2,4.4-3.2c2.6-2.7,5.7-4.8,9.2-6.1l0.6-0.4c-6.5,1.6-14,4.4-17.2,10.7
	c-0.5,1-0.9,2-1.1,3C29.2,84.8,30.5,83.5,32,82.3z"/>
<path class="st0" d="M55.7,171.5l-0.5-0.3l-0.1,0.1l0.6,0.8l0.2-0.3L55.7,171.5z"/>
<path class="st0" d="M71.9,182.9L71.9,182.9l-0.4-0.5L71.9,182.9z"/>
<path class="st0" d="M53.2,46.3c-1.1,2.5-1.5,5.3-1.2,8c0.3-0.7,0.6-1.4,1-2.1C53,50.3,53.1,48.3,53.2,46.3z"/>
<path class="st0" d="M36.2,139.7v-0.2l-0.2-0.5v0.1C36.1,139.4,36.1,139.5,36.2,139.7z"/>
<path class="st0" d="M53,58.7c0-0.7,0-1.4-0.1-2.1c-0.1,0.3-0.2,0.6-0.4,0.9C52.7,57.9,52.9,58.3,53,58.7z"/>
<path class="st0" d="M32.7,87.7c0.3-0.7,0.7-1.4,1.1-2c0.8-1.2,1.6-2.4,2.4-3.6c-1.6,1.7-2.9,3.7-3.8,5.9L32.7,87.7z"/>
<path class="st0" d="M23,133.5c0,0.1,0,0.3,0,0.4c0-0.2,0.1-0.3,0.1-0.5C23.1,133.4,23.1,133.5,23,133.5z"/>
<path class="st0" d="M60.9,173l-0.6-0.1l1,0.5L60.9,173z"/>
<path class="st0" d="M26.8,136.3L26.8,136.3L26.8,136.3z"/>
<path class="st0" d="M32.5,98.2c0.3-0.3,0.6-0.6,0.8-0.8c0.1-1.9,0.5-3.7,1.3-5.4c-0.9,1.5-1.6,3-2.1,4.6
	C32.5,97,32.5,97.6,32.5,98.2z"/>
<path class="st0" d="M36.7,94.6l0.2-0.1c0.2-0.6,0.5-1.3,0.7-1.9c-0.3,0.5-0.6,1-0.8,1.5C36.7,94.3,36.7,94.4,36.7,94.6z"/>
<path class="st0" d="M70.2,175.3l-0.6-0.5l0.7,0.7C70.2,175.5,70.2,175.4,70.2,175.3z"/>
<path class="st0" d="M25.9,112.7L25.9,112.7L25.9,112.7z"/>
<path class="st0" d="M33.9,125.3l-0.1,0.1c0,0.2,0.1,0.4,0.1,0.6C33.9,125.8,33.9,125.6,33.9,125.3z"/>
<path class="st0" d="M251.1,126.6l-0.2,0.4l0.1-0.3L251.1,126.6z"/>
<path class="st0" d="M248.8,134.2l-0.1,0.1c0,0.1,0,0.3,0,0.4l0.1-0.2C248.8,134.4,248.8,134.3,248.8,134.2z"/>
<path class="st0" d="M247.9,135.6l-0.6,0.8l0.5-0.7L247.9,135.6z"/>
<path class="st0" d="M255,103.8c-0.1-0.4-0.2-0.8-0.3-1.1v0.1C254.8,103.1,254.9,103.4,255,103.8z"/>
<path class="st0" d="M248.6,140.6c-0.4,0.5-0.8,0.9-1.3,1.4c-0.2,0.8-0.3,1.5-0.5,2.3l0.4-0.4c0.6-1.2,1.1-2.4,1.7-3.6L248.6,140.6z
	"/>
<path class="st0" d="M246.8,134.5c0,0.2,0,0.4-0.1,0.6c0.2-0.3,0.4-0.6,0.5-1L246.8,134.5z"/>
<path class="st0" d="M58.1,174.7l-0.2-0.1l0,0l0.3,0.3c0.8,0.9,1.5,1.7,2.3,2.6C59.7,176.6,58.9,175.7,58.1,174.7z"/>
<path class="st0" d="M249.4,136.5c-0.3,0.4-0.5,0.9-0.8,1.3c0.4-0.4,0.8-0.8,1.2-1.2c0.3-0.6,0.6-1.1,0.9-1.7
	C250.3,135.3,249.9,135.9,249.4,136.5z"/>
<path class="st0" d="M254.9,127.6c0,0.2-0.1,0.3-0.1,0.5v0.2l0.1-0.2C254.9,127.9,254.9,127.8,254.9,127.6z"/>
<path class="st0" d="M201,37.5c0.9,0.7,1.7,1.4,2.4,2c-1.4-2.3-3.3-4.2-5.4-5.9C199,34.8,200,36.1,201,37.5z"/>
<path class="st0" d="M225.6,55.1c-0.5-0.8-1.2-1.5-1.8-2.1c-2.3-2.3-5.1-4-8.2-4.9C219.1,50.1,222.4,52.5,225.6,55.1z"/>
<path class="st0" d="M192.1,29.3c-1-0.7-2.1-1.3-3.2-1.9c-1.6-0.8-3.2-1.4-4.9-1.9c1.3,0.8,2.6,1.6,3.8,2.4
	C189.2,28.2,190.7,28.7,192.1,29.3z"/>
<path class="st0" d="M113.7,1c-3.5,0.3-7,1-10.3,2.1l-1.1,0.5c5.5-0.7,11.1-1,16.6-0.9c0.8-0.2,1.7-0.4,2.5-0.6
	C118.9,1.3,116.3,1,113.7,1z"/>
<path class="st0" d="M256.3,127.3c-0.3,0.7-0.6,1.5-0.9,2.2v0.2l0.3-0.5C255.9,128.6,256,127.9,256.3,127.3z"/>
<path class="st0" d="M256.1,123.9c-0.1,0.4-0.3,0.7-0.4,1.1s0,0.6,0,0.9c0.1-0.6,0.3-1.1,0.4-1.7C256,124.1,256,124,256.1,123.9z"/>
<path class="st0" d="M256.5,100c0.2,1.1,0.5,2.1,0.6,3.2c0.3,1.7,0.4,3.5,0.4,5.2c0.1,0.6,0.1,1.1,0.2,1.7c0.5,3.9,0.5,7.9-0.1,11.9
	C259.3,114.6,259.5,106.8,256.5,100z"/>
<path class="st0" d="M246,83.9l1.2,1c-0.4-0.7-0.8-1.3-1.2-2c-0.3-0.4-0.6-0.8-0.9-1.2C245.3,82.4,245.7,83.2,246,83.9z"/>
<path class="st0" d="M245.5,142.4c-0.5,0.4-1.1,0.8-1.7,1.1l-1,1c-0.1,0.2-0.1,0.4-0.2,0.6C243.6,144.3,244.6,143.4,245.5,142.4z"/>
<path class="st0" d="M168.3,16.6c4.2,2.2,8,4.3,11.5,6.4c-3.6-7.5-12.4-11.9-20.4-12.7c-1.4-0.1-2.7-0.2-4.1-0.2
	C160.1,11.2,164.5,13.5,168.3,16.6z"/>
<path class="st0" d="M63.2,18.6c0.7-1,1.4-2,2.3-2.9l0.4-0.4c0.2-0.2,0.4-0.4,0.7-0.7l0.4-0.3c0.8-0.8,1.6-1.5,2.5-2.1l0.4-0.3
	l0.7-0.5c2-1.3,4.1-2.4,6.3-3.3C71.2,9,66,10.9,61.9,14.9c-3.1,3-5.4,6.7-6.5,10.9c-0.7,2.5-1.3,5.4-0.6,8c0,0.2,0.1,0.4,0.2,0.5
	C56.5,28.2,59.1,22.5,63.2,18.6z"/>
<path class="st0" d="M43,70l0.3-0.1c0.6-0.3,1.3-0.5,2-0.8l0,0c-1.4,0.4-2.7,0.9-4,1.4C41.8,70.3,42.3,70.2,43,70z"/>
<path class="st0" d="M46,59.1c-0.6,2.6-0.7,5.2-0.5,7.9c0.6-0.2,1.2-0.3,1.9-0.5C46.6,64.1,46.1,61.6,46,59.1z"/>
<path class="st0" d="M28.7,150.5c0.5,0.9,1,1.8,1.5,2.7c-0.1-0.3-0.2-0.6-0.3-1c-0.5-0.8-0.9-1.6-1.4-2.4L28.7,150.5z"/>
<path class="st0" d="M25.5,100c-0.2-0.6-0.4-1.1-0.5-1.6c-0.1-0.3-0.2-0.7-0.3-1c-0.8,3.3-0.9,6.8-0.4,10.2l0.5-0.8
	C24.6,104.5,24.9,102.2,25.5,100z"/>
<path class="st0" d="M144.9,6.6l-0.3-0.2c-0.5-0.1-0.9-0.2-1.4-0.3L144.9,6.6z"/>
<path class="st0" d="M128.2,3.3c-0.9-0.4-1.8-0.7-2.6-1H125c0.6,0.3,1.3,0.5,1.9,0.8L128.2,3.3z"/>
<path class="st0" d="M29.2,149.4c0,0-0.1-0.1-0.1-0.1l0.3,0.7c0-0.2-0.1-0.3-0.1-0.5C29.2,149.5,29.2,149.5,29.2,149.4z"/>
<path class="st0" d="M157.8,11.5c2.7,1.2,5.2,2.4,7.7,3.7C163.1,13.6,160.5,12.4,157.8,11.5z"/>
<path class="st0" d="M137.7,4.8c1.3,0,2.6,0.1,3.9,0.2c-2.2-1-4.5-1.7-6.8-2.2c-2.3-0.4-4.6-0.6-6.9-0.6c1.3,0.4,2.5,1,3.8,1.5
	C133.7,4,135.7,4.3,137.7,4.8z"/>
<path class="st0" d="M123.3,1.7h0.2l-0.8-0.2L123.3,1.7z"/>
<path class="st0" d="M27.7,100.8c0-0.2,0.1-0.4,0.1-0.7s0.1-0.5,0.2-0.8l-0.4-0.5c-0.1,0.4-0.3,0.7-0.4,1.1
	C27.4,100.3,27.5,100.5,27.7,100.8z"/>
<path class="st0" d="M246.7,142.7c-1.5,1.5-3.1,2.9-4.8,4.2c-0.4,0.7-0.8,1.5-1.3,2.2c1.8-1,3.5-2.2,5-3.6l0.6-0.6
	C246.4,144.2,246.5,143.5,246.7,142.7z"/>
<path class="st0" d="M251.4,137.4l-0.2,0.4c-0.1,0.2-0.2,0.2-0.4,0.2l-0.1,0.1c-0.5,1.2-1,2.4-1.6,3.6c1.1-1.4,2.1-2.9,3-4.5
	c0-0.2,0.1-0.5,0.1-0.7C252,136.7,251.7,137,251.4,137.4z"/>
<path class="st0" d="M54.4,172.9l-0.2,0.4c0.1,0.3,0.2,0.7,0.3,1c0.2-0.3,0.4-0.7,0.7-1C54.9,173.2,54.6,173,54.4,172.9z"/>
<path class="st0" d="M52,176.6l0.3,0.6c0.5-0.7,1-1.3,1.5-2c-0.1-0.3-0.2-0.5-0.3-0.8C53,175.1,52.5,175.9,52,176.6z"/>
<path class="st0" d="M69.8,183.6c-0.7-0.1-1.5-0.2-2.2-0.3c0.6,0.8,1.2,1.5,1.7,2.3c0.2,0.3-0.2,0.5-0.4,0.2c-0.7-1-1.6-1.9-2.4-2.8
	l-0.4-0.1c-1.2-0.5-2.4-1.2-3.4-2.1c-1.1-0.9-2.2-1.8-3.1-2.8c2.6,5,6.1,9.4,10.5,13c1.5-0.9,3-1.8,4.4-2.9
	C72.6,187,71,185.4,69.8,183.6z"/>
<path class="st0" d="M195.3,31.8c-1.6-0.9-3.3-1.7-5.1-2.3c3.5,2.4,6.5,4.6,9,6.5C198,34.5,196.7,33.1,195.3,31.8z"/>
<path class="st0" d="M77.5,192.4c0.1,0.7,0.2,1.4,0.3,2.1l0.2-0.5C77.8,193.4,77.7,192.9,77.5,192.4z"/>
<path class="st0" d="M52.4,169.4c-0.8-0.6-1.6-1.2-2.4-1.8l-0.4-0.3c0,0.2,0,0.3,0.1,0.5c0.9,0.9,1.9,1.7,2.9,2.5
	C52.5,170,52.5,169.7,52.4,169.4z"/>
<path class="st0" d="M74.9,185.3c-0.9-0.6-1.8-1.3-2.5-2l-0.1,0.1c0.9,1.2,1.9,2.2,3.1,3.1C75.1,186.1,75,185.7,74.9,185.3z"/>
<path class="st0" d="M59.3,173.8l0.2,0.2l0.5,0.2l0,0L59.3,173.8z"/>
<path class="st0" d="M76.2,186.2V186l-0.2-0.1c0.1,0.3,0.2,0.5,0.3,0.8C76.2,186.5,76.2,186.3,76.2,186.2z"/>
<path class="st0" d="M123.1,2.5l-1.3,0.2c0.8,0,1.5,0.1,2.3,0.2L123.1,2.5z"/>
<path class="st0" d="M81.1,185.3c0,0.2-0.1,0.4-0.1,0.6s0,0.4,0,0.6l0.4-1L81.1,185.3z"/>
<path class="st0" d="M60.8,175.6L61,176L60.8,175.6L60.8,175.6z"/>
<path class="st0" d="M66.6,15.9c6.2-4.1,13-7.2,20.2-9.2C85.4,6.8,84,7,82.7,7.3l0.9,0.1c0.1,0,0.1,0.1,0.1,0.2
	c0,0.1-0.1,0.1-0.1,0.1c-1,0-2,0.1-3.1,0.2c-0.7,0.2-1.4,0.4-2.1,0.7c-1.5,0.5-3,1.2-4.5,1.9C71.3,11.8,68.8,13.6,66.6,15.9z"/>
<path class="st0" d="M34.6,149l-0.1-0.1l0.2,0.4L34.6,149z"/>
<path class="st0" d="M35.5,149.1L35.5,149.1c0.2,0.5,0.4,1,0.6,1.4l0,0C35.8,150.1,35.6,149.6,35.5,149.1z"/>
<path class="st0" d="M56.4,172.7L56.4,172.7L56.4,172.7z"/>
<path class="st0" d="M82.5,182.3L82.5,182.3l0.1-0.3L82.5,182.3z"/>
<path class="st0" d="M53.2,173.3c-0.1-0.5-0.2-0.9-0.3-1.4c-1.1-0.7-2.1-1.5-3-2.3c0.4,2.1,1,4.1,1.7,6.1
	C52.2,174.9,52.7,174.1,53.2,173.3z"/>
<path class="st0" d="M48,55.3c-0.3,2.3-0.3,4.6,0.1,6.9c0.2-0.6,0.4-1.2,0.7-1.8c0.5-1.2,1.1-2.3,1.8-3.4c-0.7-2.5-0.8-5.1-0.3-7.6
	C49.1,51.1,48.3,53.2,48,55.3z"/>
<path class="st0" d="M31,144.1c-0.1-0.3-0.3-0.5-0.4-0.8c0.2,0.5,0.4,1,0.6,1.5C31.1,144.6,31.1,144.3,31,144.1z"/>
<path class="st0" d="M69.2,182.8c-1-1.5-1.9-3.2-2.7-4.9c-0.5-0.4-0.9-0.9-1.4-1.3c-1.1-0.2-2.2-0.4-3.3-0.6l0,0
	c0.5,0.9,1.1,1.7,1.7,2.5c1,0.6,2.1,1.2,3.2,1.5c0.3,0.1,0.2,0.6-0.1,0.5c-0.8-0.3-1.5-0.6-2.2-0.9c0.7,0.9,1.4,1.7,2.1,2.6
	c0.6,0.2,1.2,0.4,1.8,0.5L69.2,182.8z"/>
<path class="st0" d="M27.1,103.8c-0.2-0.4-0.4-0.8-0.6-1.2c-0.2,0.8-0.3,1.6-0.4,2.4C26.5,104.6,26.8,104.2,27.1,103.8z"/>
<path class="st0" d="M26.6,97.1c-0.2-0.3-0.4-0.7-0.5-1c0.1,0.5,0.2,1,0.3,1.4L26.6,97.1z"/>
<path class="st0" d="M23.5,113.3c0.1-0.4,0.3-0.9,0.4-1.3c-0.7,1.3-1.4,2.6-2.1,3.9C22.3,115.1,22.9,114.2,23.5,113.3z"/>
<g>
	
		<image style="overflow:visible;opacity:0.75;" width="270" height="300" xlink:href="B1A07432.png"  transform="matrix(1 0 0 1 -4 -3.39)">
	</image>
	<g>
		<path d="M8,136.4c0.8,6.7,2,13.2,3,19.4c0,0.3,0.5,0.2,0.5-0.1c-0.9-5.9-2-11.9-2.8-17.9c0.3,0.6,0.7,1.2,1.1,1.8
			c1.5,5.6,3.7,10.9,6.6,15.9c0.1,0.1,0.3,0.2,0.5,0.1c0.2-0.1,0.3-0.3,0.2-0.5c-2.2-4-4-8.3-5.3-12.7c0.6,0.8,1.3,1.6,2.1,2.3
			c0.8,0.8,1.7,1.5,2.6,2.2l0.1,0.4c0,0.1,0.1,0.1,0.2,0.2c0.1,0,0.3,0,0.3-0.2c2,1.5,4.1,2.8,6.3,3.9c3.1,4.6,7.1,9,7.5,10.9
			c-2.6,1.7-5.6,2.9-8.8,3.3c-0.2,0-0.1,0.3,0,0.4c2.7,1.1,6,0.3,8.7-1.1c-0.7,5.4-3.4,17.3-4.7,19.8c-1.6,2.9-4.4,7-4.9,10.2
			s3.1,4.8,5.9,5.4s8.8,1.5,10.6,3.1s1.2,6.3,1,8.5c-0.2,2.3,1.4,4.3,3.6,4.8c2.6,0.5,5.3,0.9,8,1c0,0-5,2-5.1,5.8s2.2,4.4,4,4.8
			s4.4,1.2,5.2,6s2.8,11.3,8.6,13.9s17.8-1.8,24.5-7.3s17.5-8.3,23-3.2s13.8,10.8,17.6,17.5c3.8,6.7,7,38.7,7,38.7h127.7
			c0,0-35-34-52.7-54.7c-10.5-12.3-19.3-30.5-24.6-43.3c0.2-1.1,0.4-2.2,0.6-3.4c0,0,0.1-0.1,0.1-0.1c3.4,4.8,7,9.5,10.9,14
			c0.2,0.2,0.5-0.1,0.3-0.3c-3.8-5-7.7-10-11.1-15.3c0-0.4,0.1-0.7,0.1-1.1v-0.1c3.5,4.8,7.4,9.3,11.6,13.5c0.2,0.2,0.5-0.1,0.3-0.3
			c-4.3-4.3-8.1-8.9-11.6-13.8c0.3-0.1,0.6-0.2,0.9-0.3c1.4,1.1,2.9,2.1,4.4,3c-0.4,0.3-0.7,0.5-1,0.7s-0.1,0.8,0.3,0.5
			s0.8-0.6,1.2-0.9c4.5,2.5,9.3,4.2,14.4,5c0.1,0,0.2-0.2,0.1-0.2c-4.8-1.1-9.4-2.9-13.7-5.4c4.9-4,8.9-9.1,11.6-14.9
			c0.5-0.6,1-1.2,1.5-1.7c0.3-0.3,0.5-0.6,0.8-0.9c0.3,0.5,0.7,1,1,1.5c-0.7,2.4-1.7,4.6-3.1,6.6c-0.2,0.3,0.3,0.6,0.4,0.4
			c1.4-1.9,2.5-3.9,3.3-6.1c0.5,0.6,0.9,1.3,1.4,1.9c-1.5,3.2-3.4,6.2-5.6,8.9c-0.4,0.5,0.3,1.2,0.7,0.7c2.2-2.6,4.1-5.5,5.8-8.4
			c6,7.5,12.9,14.3,20.5,20.2c0.2,0.1,0.4-0.1,0.2-0.2c-4.9-4-9.4-8.4-13.7-13.1c-2.3-2.5-4.5-5-6.7-7.6l0.3-0.5
			c0.5,0.6,1,1.3,1.5,1.8c1.9,2.2,4,5.2,7.2,5.5c0.2,0,0.2-0.4,0-0.4c-3.5-0.4-6.4-4.6-8.4-7.6c1.5-3.1,2.5-6.4,2.9-9.7l0.1,0
			c0.8-1,1.6-2,2.4-3c0.1,0,0.2,0,0.3-0.1c1.1-1,2-2.1,2.9-3.4c1.1-1.1,2.1-2.2,3-3.4c1.1-1.3,2.3-2.7,3.3-4
			c0.8-0.5,1.6-1.1,2.3-1.6c1.3-1,2.5-2.2,3.4-3.6c-0.2,1.6-0.6,3.2-1,4.7c-1.2,1.7-2.6,3.3-4.3,4.5c-0.3,0.2,0,0.7,0.3,0.5
			c1.3-1,2.5-2.2,3.6-3.5c-0.2,0.6-0.3,1.1-0.5,1.6c-0.7,1.1-1.5,2.1-2.3,3.1c-0.3,0.4,0.3,0.8,0.6,0.5c2.7-2.7,5.1-5.8,7.1-9.1
			c-2.1,5.3-4.9,10.4-8.3,15.1c-0.4,0.5,0.5,1,0.8,0.5c2.3-3.1,4.5-6.4,6.4-9.8c0.3,0.1,0.6-0.1,0.7-0.3c0.3-0.8,0.6-1.6,0.8-2.4
			c0.1,0,0.2-0.1,0.2-0.2c0-0.3,0.1-0.6,0.2-0.8c1-2,1.7-4.2,2.3-6.3c0.7-1.4,1.3-2.9,1.8-4.4l0,0c-0.9,4-2.2,8-3.9,11.8
			c-0.2,0.4,0.4,0.8,0.6,0.4c1.1-2.4,2.2-4.9,3.2-7.4c-0.2,4.8-0.8,9.6-1.6,14.3c-0.1,0.5,0.6,0.7,0.7,0.2c1.3-6.1,2-12.2,2.2-18.4
			c1-3.4,1.4-7,1-10.6c-0.2-1.5-0.4-3-0.8-4.4c0-0.2,0-0.3,0-0.5c1.3,4.5,2,9.1,2.1,13.8c-0.1,0.3-0.1,0.6-0.2,0.9
			c0,0.2,0,0.3,0.2,0.4c0,1.3,0,2.6,0,4l0,0c0,0,0,0.1,0.1,0.1s0.1,0,0.1-0.1c0.1-1.6,0.3-3.3,0.4-4.9c3.3-10.6,0.4-22.8-5.6-32.4
			c1.3-5.4,1-11-0.9-16.2c0.1-1.3,0-2.6-0.3-3.9c0-0.6-0.1-1.2-0.2-1.8c-0.1-0.8-0.3-1.5-0.6-2.3c-0.4-3.1-1.8-5.9-3.9-8.2
			c-4.3-4.5-9.8-7.9-15.8-9.6c0.5-5-0.2-10.1-2.3-14.8c-0.7-2-1.6-3.8-2.8-5.5c-0.7-1.1-1.4-2.1-2.1-3.1c-0.5-1-1.1-2-1.7-2.9
			c-0.3-1.9-0.6-3.7-1-5.5c0.3-0.7,0.6-1.4,0.7-2.1c0.3-2.3,0.2-4.6-0.4-6.8c-1.1-4.4-3.3-8.4-6.4-11.6c-5.1-4.9-11.8-7.6-18.9-7.7
			c-3.4-1-6.9-1.5-10.4-1.5c-2.4-0.6-4.8-1.1-7.4-1.6c-1.2-0.5-2.5-0.8-3.6-1.2c-1.7-0.6-3.5-1.1-5.3-1.6c-1.7-0.5-3.4-0.9-5.2-1.1
			c-2-0.3-4.1-0.4-6.1-0.3c-2.7,0.2-5.4,0.6-8,1.4c-2-0.2-4-0.2-6,0c-4.8,0.6-9.5,2.1-13.8,4.4c-0.4,0.1-0.9,0.3-1.3,0.4
			c-2,0.7-3.9,1.6-5.7,2.7c-3.6-0.2-7.1,0.2-10.6,0.9c-7.4,1.7-15.1,6.5-17.8,13.8L81,24c-2.9,0.6-5.8,1.6-8.4,3
			c-1.9,1-3.6,2.3-5.2,3.7c-4.1,2.3-7.4,5.7-9.5,9.9c-1.5,1.3-2.5,2.3-2.9,2.7c-2.5,0.7-4.8,2-6.7,3.7c-3.8,0.7-7.4,2.6-10.1,5.4
			c-1.4,1.5-2.6,3.2-3.7,4.9l-0.2,0.2c-3.6,3.6-6.7,7.8-9.2,12.3c-3.4,3.1-6.5,6.7-9,10.6c-2.6,3.1-4.8,6.4-6.5,10
			c-3.9,4.2-7.2,8.9-8.7,14.4c-2.3,8.3-0.4,16.9,4,24.4C5.7,131.6,6.8,134.1,8,136.4z M15.4,143.9c-0.6-1.2-1.1-2.4-1.7-3.6l0.2,0.3
			c0.4,0.5,0.8,0.9,1.3,1.4c0.2,0.8,0.3,1.5,0.5,2.3L15.4,143.9z M13.9,137.7c-0.4-0.4-0.8-0.8-1.2-1.2c-0.3-0.6-0.6-1.2-0.9-1.7
			c0.4,0.6,0.9,1.1,1.3,1.7C13.4,136.9,13.7,137.3,13.9,137.7L13.9,137.7z M15.8,134.5c0,0.2,0,0.4,0.1,0.6c-0.2-0.4-0.4-0.7-0.5-1
			L15.8,134.5L15.8,134.5z M11.6,126.9l-0.1-0.3v-0.1L11.6,126.9z M15.2,136.4l-0.5-0.7v-0.2L15.2,136.4z M13.8,134.3
			c0,0.1,0,0.3,0.1,0.5l-0.1-0.2C13.8,134.4,13.8,134.3,13.8,134.3L13.8,134.3L13.8,134.3z M7.6,103.8c0.1-0.4,0.2-0.8,0.3-1.1v0.1
			C7.8,103.1,7.7,103.5,7.6,103.8L7.6,103.8z M7.8,128.4l-0.1-0.2c0-0.2,0-0.3,0-0.5c0,0.2,0.1,0.3,0.1,0.5L7.8,128.4z M6.9,124.9
			c0,0.3,0,0.6,0,0.9c-0.2-0.6-0.3-1.1-0.4-1.7c0-0.1,0-0.2,0-0.3C6.6,124.2,6.7,124.6,6.9,124.9L6.9,124.9z M4.8,110.1
			c-0.5,4-0.5,8,0.1,11.9c-1.6-7.4-1.8-15.2,1.2-22c-0.3,1.1-0.5,2.1-0.6,3.2c-0.3,1.7-0.4,3.5-0.4,5.2C5,109,4.9,109.6,4.8,110.1
			L4.8,110.1z M7.3,129.7L7,129.2c-0.2-0.6-0.4-1.2-0.6-1.9c0.3,0.7,0.6,1.5,0.9,2.2L7.3,129.7z M15.4,84.9c0.4-0.7,0.9-1.3,1.2-2
			c0.3-0.4,0.6-0.8,0.9-1.2c-0.4,0.7-0.7,1.4-1,2.2L15.4,84.9L15.4,84.9z M19.8,144.6c0.1,0.2,0.1,0.4,0.2,0.6c-1-0.9-2-1.8-2.9-2.7
			c0.6,0.4,1.1,0.8,1.7,1.1L19.8,144.6L19.8,144.6z M37,55.1c0.6-0.8,1.2-1.5,1.9-2.1c2.3-2.3,5.1-4,8.2-4.9
			C43.5,50.1,40.2,52.5,37,55.1L37,55.1z M59.2,39.5c1.5-2.3,3.3-4.2,5.4-5.9c-1.1,1.2-2.1,2.5-3,3.9C60.7,38.2,59.9,38.9,59.2,39.5
			L59.2,39.5z M78.6,25.5c-1.3,0.8-2.6,1.6-3.8,2.4c-1.5,0.3-2.9,0.8-4.4,1.4c1-0.7,2.1-1.3,3.2-1.9C75.2,26.6,76.9,26,78.6,25.5z
			 M143.7,2.6c-0.8-0.2-1.7-0.4-2.5-0.6c2.5-0.7,5.1-1.1,7.8-1.1c3.5,0.3,7,1,10.3,2.1l1.1,0.5C154.8,2.8,149.2,2.5,143.7,2.6z
			 M204.4,175c-0.8,0.9-1.5,1.7-2.3,2.6c0.8-0.9,1.6-1.8,2.4-2.8l0.2-0.1l0,0L204.4,175z M241.8,122.3c0-0.4-0.1-0.8-0.1-1.2
			c1.3,3,2.2,6.1,2.7,9.3c-0.6-2.7-1.4-5.3-2.4-7.9L241.8,122.3z M206.7,172.2l-0.2-0.3l0.3-0.4l0.5-0.3l0.1,0.1L206.7,172.2z
			 M233.5,83.3c0.5,1,0.9,2,1.1,3c-1.2-1.5-2.5-2.8-4-4c-1.4-1.1-2.9-2.2-4.4-3.2c-2.6-2.7-5.7-4.8-9.2-6.1l-0.6-0.4
			C222.8,74.2,230.2,77,233.5,83.3z M209.4,46.3c1.1,2.5,1.5,5.3,1.3,8c-0.3-0.7-0.7-1.4-1-2.1C209.6,50.3,209.5,48.3,209.4,46.3
			L209.4,46.3z M190.7,182.8l0.4-0.4L190.7,182.8L190.7,182.8z M234.1,100c0,0.1,0.1,0.2,0.1,0.3c0.1,0.5,0.2,1,0.3,1.5l-0.3,0.5
			l-0.5-0.5c0-0.5,0.1-0.9,0.1-1.4L234.1,100L234.1,100z M210.8,60.5c0.1,0.3,0.2,0.7,0.2,1c0.2,1.4,0.4,2.8,0.5,4.2
			c-0.8-0.1-1.6-0.2-2.4-0.3c0.1-0.6,0.1-1.1,0.1-1.7C209.8,62.7,210.3,61.6,210.8,60.5L210.8,60.5z M216.1,78.6
			c0.3,0.3,0.7,0.5,1,0.8l0.1,0.1c-0.7-0.6-1.5-1.1-2.3-1.5l-0.2-0.3C215.1,78,215.6,78.3,216.1,78.6L216.1,78.6z M219.2,151.9
			l-0.1,0.1l0.3-0.5l0,0l-0.1,0.2L219.2,151.9z M228.8,125.5c0,0.2-0.1,0.4-0.1,0.6c0-0.2,0-0.5,0-0.7L228.8,125.5z M226.6,139v0.1
			c-0.1,0.2-0.1,0.4-0.2,0.6v-0.2L226.6,139z M193.1,174.8l-0.7,0.7c0-0.1,0-0.1,0-0.1L193.1,174.8z M225.8,94.5
			c-0.2-0.6-0.5-1.2-0.7-1.9c0.3,0.5,0.6,1,0.8,1.5c0.1,0.2,0.1,0.3,0.1,0.5L225.8,94.5L225.8,94.5z M228,91.9
			c0.9,1.5,1.6,3,2.1,4.6c0,0.6,0,1.1,0,1.7c-0.3-0.3-0.6-0.6-0.8-0.8C229.1,95.5,228.7,93.6,228,91.9z M236.8,112.7L236.8,112.7
			L236.8,112.7z M235.9,136.3L235.9,136.3L235.9,136.3z M202.2,172.8l-1,0.5l0.4-0.4L202.2,172.8z M209.6,58.7
			c0-0.7,0.1-1.4,0.1-2.1c0.1,0.3,0.2,0.6,0.4,0.9C209.9,57.9,209.7,58.3,209.6,58.7L209.6,58.7z M228.8,85.7
			c-0.7-1.3-1.5-2.5-2.4-3.7c1.6,1.7,2.9,3.7,3.8,5.9l-0.3-0.3C229.6,87,229.3,86.3,228.8,85.7L228.8,85.7z M239.5,133.9
			c0-0.2-0.1-0.3-0.1-0.5c0,0,0.1,0.1,0.1,0.1C239.5,133.6,239.5,133.8,239.5,133.9z M233.1,92c-0.6-2.7-1.6-5.3-3-7.7
			c1.9,1.7,3.5,3.7,4.8,5.8c-0.1,1.2-0.3,2.4-0.7,3.5C233.8,93.1,233.5,92.6,233.1,92L233.1,92z M234.9,98.9
			c0.1,0.4,0.3,0.7,0.4,1.1c-0.1,0.3-0.2,0.6-0.4,0.9c-0.1-0.2-0.1-0.4-0.1-0.7s-0.1-0.5-0.2-0.8L234.9,98.9z M228.1,148.9l-0.2,0.4
			l0.1-0.2L228.1,148.9z M227.1,149.1c-0.2,0.5-0.4,0.9-0.6,1.5l0,0C226.7,150.1,226.9,149.6,227.1,149.1L227.1,149.1L227.1,149.1z
			 M206.1,172.7L206.1,172.7L206.1,172.7z M201.6,176l0.2-0.3h0.1L201.6,176z M202.6,174.2L202.6,174.2l0.6-0.4l-0.2,0.2
			L202.6,174.2z M190.4,183.4c-0.9,1.2-1.9,2.2-3.1,3.2c0.1-0.4,0.3-0.8,0.4-1.2c0.9-0.6,1.8-1.3,2.6-2.1L190.4,183.4L190.4,183.4z
			 M186.7,185.9c-0.1,0.3-0.2,0.5-0.3,0.8c0-0.2,0-0.4,0-0.5V186L186.7,185.9z M181.6,185.8c0,0.2,0,0.4,0,0.7l-0.4-1l0.3-0.2
			C181.5,185.4,181.6,185.6,181.6,185.8L181.6,185.8z M180,182.3l-0.1-0.3L180,182.3L180,182.3L180,182.3z M184.1,8.5
			c1.5,0.5,3,1.1,4.4,1.9c2.8,1.4,5.3,3.3,7.4,5.5c-6.2-4.1-13-7.2-20.2-9.2c1.4,0.1,2.8,0.3,4.2,0.6l-0.9,0.1
			c-0.1,0-0.1,0.1-0.1,0.1c0,0.1,0,0.2,0.1,0.2c1.1,0,2.1,0.1,3.1,0.2C182.7,8,183.4,8.2,184.1,8.5L184.1,8.5z M212,56.9
			c0.6-2.5,0.7-5.1,0.3-7.6c1.1,1.8,1.9,3.8,2.2,5.9c0.3,2.3,0.3,4.6-0.1,6.9c-0.2-0.6-0.4-1.2-0.7-1.8
			C213.2,59.2,212.6,58.1,212,56.9L212,56.9z M236.5,96.1c-0.1,0.5-0.2,1-0.3,1.4l-0.2-0.4C236.1,96.8,236.3,96.4,236.5,96.1z
			 M235.5,103.8c0.2-0.4,0.4-0.8,0.5-1.2c0.2,0.8,0.3,1.6,0.4,2.4C236.1,104.6,235.8,104.2,235.5,103.8L235.5,103.8z M239.1,113.3
			c-0.1-0.4-0.3-0.9-0.4-1.3c0.7,1.3,1.4,2.6,2.1,3.9C240.2,115.1,239.7,114.2,239.1,113.3L239.1,113.3z M231.6,144.1
			c0.1-0.3,0.3-0.5,0.4-0.8c-0.2,0.5-0.4,1-0.6,1.5C231.4,144.6,231.5,144.3,231.6,144.1L231.6,144.1z M213,167.3
			c0,0.2,0,0.3-0.1,0.5c-0.9,0.9-1.9,1.7-2.9,2.5c0-0.3,0.1-0.6,0.1-0.9c0.8-0.6,1.6-1.2,2.4-1.8L213,167.3L213,167.3z M212.7,169.6
			c-0.4,2.1-1,4.1-1.7,6.1c-0.5-0.8-1.1-1.6-1.6-2.4c0.1-0.4,0.2-0.9,0.3-1.4C210.7,171.3,211.7,170.5,212.7,169.6z M198,179.6
			c-0.7,0.9-1.4,1.7-2.1,2.6c-0.6,0.2-1.2,0.4-1.8,0.5l-0.7,0.1c1-1.5,1.9-3.2,2.7-4.9c0.5-0.4,0.9-0.8,1.4-1.3
			c1.1-0.2,2.2-0.4,3.3-0.6l0,0c-0.5,0.9-1.1,1.7-1.7,2.5c-1,0.6-2.1,1.2-3.2,1.5c-0.3,0.1-0.2,0.6,0.1,0.5
			C196.6,180.3,197.3,180,198,179.6L198,179.6z M140.8,2.7c-0.8,0-1.6,0.1-2.3,0.2l1-0.3L140.8,2.7z M137.6,2.3
			c-0.6,0.3-1.3,0.5-1.9,0.8l-1.4,0.1c0.9-0.4,1.8-0.7,2.6-1L137.6,2.3z M104.7,11.5c-2.7,1.2-5.2,2.4-7.7,3.7
			C99.5,13.6,102,12.4,104.7,11.5L104.7,11.5z M118,6.4c0.5-0.1,0.9-0.2,1.4-0.3l-1.7,0.5L118,6.4z M82.7,22.9
			c3.6-7.5,12.4-11.9,20.4-12.7c1.4-0.1,2.7-0.2,4.1-0.2c-4.8,1.2-9.2,3.5-13,6.6C90,18.7,86.2,20.9,82.7,22.9L82.7,22.9z
			 M127.8,2.8c2.2-0.4,4.5-0.6,6.8-0.6c-1.3,0.5-2.5,1-3.8,1.5c-2,0.3-4,0.6-6,1.1c-1.3,0-2.6,0.1-3.9,0.2
			C123.1,4,125.4,3.3,127.8,2.8L127.8,2.8z M139.1,1.7l0.8-0.2l-0.6,0.2L139.1,1.7z M207.7,33.9c-0.1,0.2-0.1,0.4-0.1,0.5
			c-1.5-6.2-4.1-11.9-8.2-15.8c-0.7-1-1.4-2-2.3-2.9l-0.4-0.4c-0.2-0.2-0.4-0.4-0.7-0.7l-0.4-0.3c-0.8-0.7-1.6-1.4-2.5-2.1l-0.4-0.2
			l-0.7-0.5c-2-1.3-4.1-2.4-6.3-3.3c5.5,0.8,10.7,2.7,14.8,6.7c3.1,3,5.4,6.7,6.5,10.9C207.9,28.4,208.5,31.3,207.7,33.9L207.7,33.9
			z M216.6,59.1c0.6,2.6,0.7,5.2,0.5,7.9c-0.6-0.2-1.2-0.3-1.9-0.5C216,64.1,216.5,61.6,216.6,59.1L216.6,59.1z M217.5,69.1
			c1.4,0.4,2.7,0.9,4,1.4c-0.6-0.2-1.2-0.4-1.8-0.5l-0.3-0.1C218.7,69.6,218.1,69.4,217.5,69.1L217.5,69.1z M238.3,107.6l-0.5-0.8
			c0.2-2.3-0.1-4.6-0.7-6.8c0.2-0.6,0.4-1.1,0.5-1.6c0.1-0.3,0.2-0.7,0.3-1C238.6,100.7,238.8,104.2,238.3,107.6z M232.6,152.3
			c0.5-0.8,0.9-1.6,1.4-2.4l-0.1,0.6c-0.5,0.9-1,1.8-1.5,2.7C232.4,152.9,232.5,152.6,232.6,152.3z M233.2,149.9
			c0-0.2,0.1-0.3,0.1-0.5c0,0,0.1,0,0.1,0c0,0,0.1-0.1,0.1-0.1L233.2,149.9z M210.3,177.2c-0.5-0.6-1-1.3-1.5-2
			c0.1-0.3,0.2-0.6,0.3-0.8c0.5,0.8,1,1.5,1.5,2.2L210.3,177.2L210.3,177.2z M208.2,174.3c-0.2-0.3-0.4-0.7-0.7-1
			c0.2-0.1,0.5-0.3,0.7-0.4l0.2,0.4C208.3,173.6,208.2,174,208.2,174.3z M192.6,191c-1.5-0.9-3-1.8-4.4-2.9c1.8-1.2,3.4-2.7,4.6-4.5
			c0.7-0.1,1.5-0.2,2.2-0.3c-0.6,0.8-1.2,1.5-1.7,2.3c-0.2,0.2,0.2,0.5,0.4,0.2c0.7-1,1.6-1.9,2.4-2.8l0.4-0.1
			c1.2-0.5,2.4-1.2,3.4-2.1c1.1-0.9,2.2-1.8,3.1-2.8C200.5,183,196.9,187.4,192.6,191L192.6,191z M185.1,192.4
			c-0.1,0.7-0.2,1.4-0.3,2.1l-0.2-0.5C184.7,193.4,184.9,192.9,185.1,192.4L185.1,192.4z M63.4,36c1.2-1.5,2.5-2.9,3.9-4.2
			c1.6-0.9,3.3-1.7,5.1-2.3C68.9,31.9,65.9,34.1,63.4,36z M17,145.5l-0.6-0.6c-0.2-0.7-0.4-1.5-0.5-2.3c1.5,1.5,3.1,2.9,4.8,4.2
			c0.4,0.7,0.8,1.5,1.3,2.2C20.2,148.1,18.5,146.9,17,145.5z M13.4,141.6c-1.1-1.4-2.1-3-3-4.5c-0.1-0.3-0.1-0.5-0.1-0.7
			c0.3,0.4,0.6,0.7,0.9,1l0.2,0.4c0.1,0.2,0.2,0.2,0.4,0.2l0.1,0.1C12.4,139.3,12.9,140.4,13.4,141.6L13.4,141.6z"/>
	</g>
</g>
</svg>
